<?xml version="1.0" encoding="utf-8"?>
<!-- Generator: Adobe Illustrator 18.1.0, SVG Export Plug-In . SVG Version: 6.00 Build 0)  -->
<svg version="1.1" xmlns="http://www.w3.org/2000/svg" x="0px" y="0px"
     viewBox="0 0 3710 3710" enable-background="new 0 0 3710 3710" xml:space="preserve">
<g id="Background">
</g>
    <g id="Illustration">
	<g>
		<linearGradient id="SVGID_1_" gradientUnits="userSpaceOnUse" x1="3595.5696" y1="4058.5598" x2="1119.795"
                        y2="983.8031">
			<stop offset="0" style="stop-color:#DAE3FE"/>
            <stop offset="1" style="stop-color:#E9EFFD"/>
		</linearGradient>
        <path fill="url(#SVGID_1_)" d="M2914.5,2846c-56.9,59.9-110.7,98.5-153.2,129c-499.7,358.6-1091,254-1216.7,228.5
			C1359,3165.8,1000.3,3092.9,741,2788C348.6,2326.5,409.7,1599.6,714,1119.7c55.7-87.8,349.7-574.9,947.4-653.1
			c361.7-47.3,783.3,48.1,1088.7,303.9C3391,1307.5,3345.4,2392.3,2914.5,2846z"/>
        <g>
			<path fill="#91B3FA" d="M3082.7,1358.7c21.8-112.6,4.8-221.3-40.1-304.4c-40.2-74.3-50.8-161.4-28.1-242.8
				c2.4-8.6,4.5-17.3,6.2-26.3c26.3-135.4-35-261.2-136.8-281c-101.8-19.7-205.7,74.1-231.9,209.5c-5.4,27.7-7.1,55-5.5,81
				c5,83.2-20.2,165.8-73.4,229.8c-47.5,57.3-83.3,131.5-99.7,215.9c-24.4,125.9-0.3,246.9,57.2,332.7
				c21.7,32.4,37.5,68.7,46.2,106.8c14.4,63.3,56.5,112.5,113.7,123.6c61.7,12,123.6-23.8,160-85.2c20.6-34.8,47.7-65,79-90.5
				C3003.3,1567.8,3060.7,1472.5,3082.7,1358.7z"/>
            <path fill="#BDD0FB" d="M2891.6,655.2c-4,92.1-11,184-19,275.8c-2,23-4.3,45.9-6.6,68.8l-3.4,34.4l-3.7,34.4
				c-2.6,22.9-4.8,45.8-7.6,68.7l-8.4,68.6c-6.2,45.7-12,91.4-19.1,137c-3.5,22.8-6.5,45.6-10.5,68.3l-11.5,68.2
				c-16.3,90.7-34.9,181.1-57.9,270.4l-3.8-1l14.7-67.4l3.7-16.8l3.3-16.9l6.5-33.9l6.6-33.9c2.2-11.3,4-22.7,6.1-34
				c3.9-22.7,8-45.3,11.8-68c14.5-90.9,27.8-182,39.2-273.3c5.4-45.7,11.1-91.4,16.2-137.1l3.9-34.3l3.6-34.3
				c2.4-22.9,4.8-45.8,7-68.7c4.7-45.8,9.2-91.6,13.2-137.5c4.3-45.8,8.1-91.7,11.9-137.6L2891.6,655.2z"/>
		</g>
        <g>
			<path fill="#BDD0FB" d="M3223.4,1833.9c37.7-124.7,31-249.5-10.3-348.6c-36.9-88.6-38.9-188.3-3.8-277.6c3.7-9.4,7-19,10-28.9
				c45.4-150-9.5-299.3-122.6-333.5c-113.1-34.2-241.5,59.6-286.9,209.6c-9.3,30.7-14.4,61.3-15.6,90.9
				c-4,94.5-42.1,184.9-109.7,251.1c-60.4,59.1-109.6,138.8-137.8,232.3c-42.2,139.4-28.8,278.9,26.3,382.6
				c20.9,39.2,34.6,82,40,126.1c9.1,73.2,51.1,133.7,114.5,152.9c68.5,20.7,142.8-12.4,191.1-77.5c27.3-36.9,61.5-67.9,99.9-93
				C3109.2,2060.9,3185.2,1960,3223.4,1833.9z"/>
            <path fill="#91B3FA" d="M3088.1,1016.8c-15.2,103.6-33.7,206.6-53.3,309.4c-4.9,25.7-10.2,51.3-15.4,77l-7.8,38.5l-8.2,38.4
				c-5.5,25.6-10.7,51.2-16.5,76.7l-17.5,76.5c-12.3,50.9-24.2,101.9-37.4,152.5c-6.6,25.3-12.7,50.8-19.8,76l-20.9,75.7
				c-28.9,100.6-60.4,200.6-96.8,298.7l-4.2-1.5l24.5-74.5l6.2-18.6l5.7-18.8l11.3-37.5l11.4-37.5c3.8-12.5,7.2-25.1,10.8-37.7
				c7.1-25.2,14.3-50.3,21.2-75.5c26.9-101,52.5-202.4,75.9-304.2c11.3-51,23.1-101.9,34.1-153l8.4-38.3l8-38.4
				c5.4-25.6,10.7-51.2,15.9-76.8c10.7-51.2,21-102.4,30.8-153.8c10.1-51.3,19.8-102.7,29.3-154.1L3088.1,1016.8z"/>
		</g>
        <g>
			<g>
				<g>
					<polygon fill="#FFFFFF" points="2181.2,1101.7 1328.5,1025.7 475.7,1111.6 475.7,2937.6 1328.5,2892.4 2181.2,2942.5 
						3032.9,2866 3032.9,1059.2 					"/>
                    <polygon fill="#7D97F4"
                             points="1346.8,2869 536.6,2911.9 536.6,1179.6 1346.8,1098.2 					"/>
                    <polygon fill="#7D97F4"
                             points="2157,2898.3 1346.8,2850.8 1346.8,1098.2 2157,1152 					"/>
                    <polygon fill="#7D97F4"
                             points="2966.2,2825.8 2157,2898.3 2157,1152 2966.2,1111.7 					"/>
                    <polygon opacity="0.47" fill="#FFFFFF"
                             points="1328.4,2851.3 1346.8,2851.3 1346.8,1080 1328.4,1098.2 					"/>
				</g>
                <linearGradient id="SVGID_2_" gradientUnits="userSpaceOnUse" x1="534.279" y1="1895.8507" x2="2966.1936"
                                y2="1895.8507">
					<stop offset="0" style="stop-color:#4F52FF"/>
                    <stop offset="1" style="stop-color:#4042E2"/>
				</linearGradient>
                <path fill="url(#SVGID_2_)" d="M536.6,1818.6c69.4,139,218.3,259.8,350.1,342.1c60,37.4,122.7,72.9,191.7,88.4
					c69,15.5,146,8.6,203.1-33c83-60.5,114.7-184.4,211.7-217.9c39.9-13.8,83.9-9,124.8-19.3c48-12,88.2-43.7,127.3-74.1
					c116.1-90.2,229.9-207.9,372.9-247c49.5-13.5,101.3-23.3,145-50.4c67.6-42,104.8-118.6,132.1-193.4
					c33.4-91.4,57.3-186.2,71.3-282.4c82.6-0.1,138.6,1.1,215.5-5.7c-107.5,148.7-186.7,313.8-221,494.1
					c-6.6,34.9-11.8,71-4.2,105.7c22.4,102.8,199,172.9,275.3,235.1c85.5,69.6,164.4,148.9,233.9,234.5v128
					c-217.5-231.9-439.1-328.2-671.1-417.3c-151-104.8-283.8,101.5-302.6,236.4c-8.5,60.8-1.6,123.9-18.3,183
					c-35.8,126.9-169.9,200.6-298.7,228.5c-90.3,19.6-178.4,29.6-260,75.7c-73.5,41.4-135.9,54.7-214.4,0.3
					c-170-117.7-332.2-250.1-468.4-406.4c-70-80.3-201.1-180.6-198-288C537.2,1853.8,531.3,1822.2,536.6,1818.6z"/>
                <g>
					<polygon fill="#FFFFFF" points="2378.5,2151 2334.7,2151 2356.6,2102.6 					"/>
                    <polygon fill="#FFFFFF" points="2391.6,2211 2321.6,2211 2356.6,2133.9 					"/>
                    <polygon fill="#FFFFFF" points="2416.3,2315.3 2296.9,2315.3 2356.6,2183.7 					"/>
				</g>
                <g>
					<polygon fill="#FFFFFF" points="2682.2,2217.1 2638.3,2217.1 2660.2,2168.7 					"/>
                    <polygon fill="#FFFFFF" points="2695.3,2277.1 2625.2,2277.1 2660.2,2200 					"/>
                    <polygon fill="#FFFFFF" points="2720,2381.4 2600.5,2381.4 2660.2,2249.8 					"/>
				</g>
                <g>
					<polygon fill="#FFFFFF" points="2506.9,2328.7 2472.1,2328.7 2489.5,2290.4 					"/>
                    <polygon fill="#FFFFFF" points="2517.3,2376.3 2461.7,2376.3 2489.5,2315.1 					"/>
                    <polygon fill="#FFFFFF" points="2536.9,2459.1 2442.1,2459.1 2489.5,2354.7 					"/>
				</g>
                <g>
					<polygon fill="#FFFFFF" points="1627.6,1597.6 1592.8,1597.6 1610.2,1559.2 					"/>
                    <polygon fill="#FFFFFF" points="1637.9,1645.2 1582.4,1645.2 1610.2,1584 					"/>
                    <polygon fill="#FFFFFF" points="1657.6,1727.9 1562.8,1727.9 1610.2,1623.5 					"/>
				</g>
                <g>
					<polygon fill="#FFFFFF" points="1728,1667.9 1693.2,1667.9 1710.6,1629.5 					"/>
                    <polygon fill="#FFFFFF" points="1738.4,1715.5 1682.9,1715.5 1710.6,1654.3 					"/>
                    <polygon fill="#FFFFFF" points="1758,1798.2 1663.2,1798.2 1710.6,1693.9 					"/>
				</g>
                <path fill="#FFFFFF" d="M1870.8,1393.5c0-2.1-1.7-3.8-3.8-3.8h-92.4c-2.1,0-3.8,1.7-3.8,3.8v179.6c0,2.1,1.7,3.8,3.8,3.8h92.4
					c2.1,0,3.8-1.7,3.8-3.8V1393.5z M1796.5,1562.9c0,0.6-0.5,1.1-1.1,1.1h-13.9c-0.6,0-1.1-0.5-1.1-1.1v-17.1
					c0-0.6,0.5-1.1,1.1-1.1h13.9c0.6,0,1.1,0.5,1.1,1.1V1562.9z M1796.5,1533.9c0,0.6-0.5,1.1-1.1,1.1h-13.9c-0.6,0-1.1-0.5-1.1-1.1
					v-17.1c0-0.6,0.5-1.1,1.1-1.1h13.9c0.6,0,1.1,0.5,1.1,1.1V1533.9z M1796.5,1504.8c0,0.6-0.5,1.1-1.1,1.1h-13.9
					c-0.6,0-1.1-0.5-1.1-1.1v-17.1c0-0.6,0.5-1.1,1.1-1.1h13.9c0.6,0,1.1,0.5,1.1,1.1V1504.8z M1796.5,1475.7c0,0.6-0.5,1.1-1.1,1.1
					h-13.9c-0.6,0-1.1-0.5-1.1-1.1v-17.1c0-0.6,0.5-1.1,1.1-1.1h13.9c0.6,0,1.1,0.5,1.1,1.1V1475.7z M1796.5,1446.7
					c0,0.6-0.5,1.1-1.1,1.1h-13.9c-0.6,0-1.1-0.5-1.1-1.1v-17.1c0-0.6,0.5-1.1,1.1-1.1h13.9c0.6,0,1.1,0.5,1.1,1.1V1446.7z
					 M1796.5,1417.6c0,0.6-0.5,1.1-1.1,1.1h-13.9c-0.6,0-1.1-0.5-1.1-1.1v-17.1c0-0.6,0.5-1.1,1.1-1.1h13.9c0.6,0,1.1,0.5,1.1,1.1
					V1417.6z M1819.1,1562.9c0,0.6-0.5,1.1-1.1,1.1h-13.9c-0.6,0-1.1-0.5-1.1-1.1v-17.1c0-0.6,0.5-1.1,1.1-1.1h13.9
					c0.6,0,1.1,0.5,1.1,1.1V1562.9z M1819.1,1533.9c0,0.6-0.5,1.1-1.1,1.1h-13.9c-0.6,0-1.1-0.5-1.1-1.1v-17.1
					c0-0.6,0.5-1.1,1.1-1.1h13.9c0.6,0,1.1,0.5,1.1,1.1V1533.9z M1819.1,1504.8c0,0.6-0.5,1.1-1.1,1.1h-13.9c-0.6,0-1.1-0.5-1.1-1.1
					v-17.1c0-0.6,0.5-1.1,1.1-1.1h13.9c0.6,0,1.1,0.5,1.1,1.1V1504.8z M1819.1,1475.7c0,0.6-0.5,1.1-1.1,1.1h-13.9
					c-0.6,0-1.1-0.5-1.1-1.1v-17.1c0-0.6,0.5-1.1,1.1-1.1h13.9c0.6,0,1.1,0.5,1.1,1.1V1475.7z M1819.1,1446.7c0,0.6-0.5,1.1-1.1,1.1
					h-13.9c-0.6,0-1.1-0.5-1.1-1.1v-17.1c0-0.6,0.5-1.1,1.1-1.1h13.9c0.6,0,1.1,0.5,1.1,1.1V1446.7z M1819.1,1417.6
					c0,0.6-0.5,1.1-1.1,1.1h-13.9c-0.6,0-1.1-0.5-1.1-1.1v-17.1c0-0.6,0.5-1.1,1.1-1.1h13.9c0.6,0,1.1,0.5,1.1,1.1V1417.6z
					 M1838.5,1562.9c0,0.6-0.5,1.1-1.1,1.1h-13.9c-0.6,0-1.1-0.5-1.1-1.1v-17.1c0-0.6,0.5-1.1,1.1-1.1h13.9c0.6,0,1.1,0.5,1.1,1.1
					V1562.9z M1838.5,1533.9c0,0.6-0.5,1.1-1.1,1.1h-13.9c-0.6,0-1.1-0.5-1.1-1.1v-17.1c0-0.6,0.5-1.1,1.1-1.1h13.9
					c0.6,0,1.1,0.5,1.1,1.1V1533.9z M1838.5,1504.8c0,0.6-0.5,1.1-1.1,1.1h-13.9c-0.6,0-1.1-0.5-1.1-1.1v-17.1
					c0-0.6,0.5-1.1,1.1-1.1h13.9c0.6,0,1.1,0.5,1.1,1.1V1504.8z M1838.5,1475.7c0,0.6-0.5,1.1-1.1,1.1h-13.9c-0.6,0-1.1-0.5-1.1-1.1
					v-17.1c0-0.6,0.5-1.1,1.1-1.1h13.9c0.6,0,1.1,0.5,1.1,1.1V1475.7z M1838.5,1446.7c0,0.6-0.5,1.1-1.1,1.1h-13.9
					c-0.6,0-1.1-0.5-1.1-1.1v-17.1c0-0.6,0.5-1.1,1.1-1.1h13.9c0.6,0,1.1,0.5,1.1,1.1V1446.7z M1838.5,1417.6c0,0.6-0.5,1.1-1.1,1.1
					h-13.9c-0.6,0-1.1-0.5-1.1-1.1v-17.1c0-0.6,0.5-1.1,1.1-1.1h13.9c0.6,0,1.1,0.5,1.1,1.1V1417.6z M1864.3,1562.9
					c0,0.6-0.5,1.1-1.1,1.1h-13.9c-0.6,0-1.1-0.5-1.1-1.1v-17.1c0-0.6,0.5-1.1,1.1-1.1h13.9c0.6,0,1.1,0.5,1.1,1.1V1562.9z
					 M1864.3,1533.9c0,0.6-0.5,1.1-1.1,1.1h-13.9c-0.6,0-1.1-0.5-1.1-1.1v-17.1c0-0.6,0.5-1.1,1.1-1.1h13.9c0.6,0,1.1,0.5,1.1,1.1
					V1533.9z M1864.3,1504.8c0,0.6-0.5,1.1-1.1,1.1h-13.9c-0.6,0-1.1-0.5-1.1-1.1v-17.1c0-0.6,0.5-1.1,1.1-1.1h13.9
					c0.6,0,1.1,0.5,1.1,1.1V1504.8z M1864.3,1475.7c0,0.6-0.5,1.1-1.1,1.1h-13.9c-0.6,0-1.1-0.5-1.1-1.1v-17.1
					c0-0.6,0.5-1.1,1.1-1.1h13.9c0.6,0,1.1,0.5,1.1,1.1V1475.7z M1864.3,1446.7c0,0.6-0.5,1.1-1.1,1.1h-13.9c-0.6,0-1.1-0.5-1.1-1.1
					v-17.1c0-0.6,0.5-1.1,1.1-1.1h13.9c0.6,0,1.1,0.5,1.1,1.1V1446.7z M1864.3,1417.6c0,0.6-0.5,1.1-1.1,1.1h-13.9
					c-0.6,0-1.1-0.5-1.1-1.1v-17.1c0-0.6,0.5-1.1,1.1-1.1h13.9c0.6,0,1.1,0.5,1.1,1.1V1417.6z"/>
                <path fill="#FFFFFF" d="M2129,1406.4c0-2.1-1.7-3.8-3.8-3.8h-92.4c-2.1,0-3.8,1.7-3.8,3.8V1586c0,2.1,1.7,3.8,3.8,3.8h92.4
					c2.1,0,3.8-1.7,3.8-3.8V1406.4z M2054.8,1575.8c0,0.6-0.5,1.1-1.1,1.1h-13.9c-0.6,0-1.1-0.5-1.1-1.1v-17.1
					c0-0.6,0.5-1.1,1.1-1.1h13.9c0.6,0,1.1,0.5,1.1,1.1V1575.8z M2054.8,1546.8c0,0.6-0.5,1.1-1.1,1.1h-13.9c-0.6,0-1.1-0.5-1.1-1.1
					v-17.1c0-0.6,0.5-1.1,1.1-1.1h13.9c0.6,0,1.1,0.5,1.1,1.1V1546.8z M2054.8,1517.7c0,0.6-0.5,1.1-1.1,1.1h-13.9
					c-0.6,0-1.1-0.5-1.1-1.1v-17.1c0-0.6,0.5-1.1,1.1-1.1h13.9c0.6,0,1.1,0.5,1.1,1.1V1517.7z M2054.8,1488.7c0,0.6-0.5,1.1-1.1,1.1
					h-13.9c-0.6,0-1.1-0.5-1.1-1.1v-17.1c0-0.6,0.5-1.1,1.1-1.1h13.9c0.6,0,1.1,0.5,1.1,1.1V1488.7z M2054.8,1459.6
					c0,0.6-0.5,1.1-1.1,1.1h-13.9c-0.6,0-1.1-0.5-1.1-1.1v-17.1c0-0.6,0.5-1.1,1.1-1.1h13.9c0.6,0,1.1,0.5,1.1,1.1V1459.6z
					 M2054.8,1430.6c0,0.6-0.5,1.1-1.1,1.1h-13.9c-0.6,0-1.1-0.5-1.1-1.1v-17.1c0-0.6,0.5-1.1,1.1-1.1h13.9c0.6,0,1.1,0.5,1.1,1.1
					V1430.6z M2077.4,1575.8c0,0.6-0.5,1.1-1.1,1.1h-13.9c-0.6,0-1.1-0.5-1.1-1.1v-17.1c0-0.6,0.5-1.1,1.1-1.1h13.9
					c0.6,0,1.1,0.5,1.1,1.1V1575.8z M2077.4,1546.8c0,0.6-0.5,1.1-1.1,1.1h-13.9c-0.6,0-1.1-0.5-1.1-1.1v-17.1
					c0-0.6,0.5-1.1,1.1-1.1h13.9c0.6,0,1.1,0.5,1.1,1.1V1546.8z M2077.4,1517.7c0,0.6-0.5,1.1-1.1,1.1h-13.9c-0.6,0-1.1-0.5-1.1-1.1
					v-17.1c0-0.6,0.5-1.1,1.1-1.1h13.9c0.6,0,1.1,0.5,1.1,1.1V1517.7z M2077.4,1488.7c0,0.6-0.5,1.1-1.1,1.1h-13.9
					c-0.6,0-1.1-0.5-1.1-1.1v-17.1c0-0.6,0.5-1.1,1.1-1.1h13.9c0.6,0,1.1,0.5,1.1,1.1V1488.7z M2077.4,1459.6c0,0.6-0.5,1.1-1.1,1.1
					h-13.9c-0.6,0-1.1-0.5-1.1-1.1v-17.1c0-0.6,0.5-1.1,1.1-1.1h13.9c0.6,0,1.1,0.5,1.1,1.1V1459.6z M2077.4,1430.6
					c0,0.6-0.5,1.1-1.1,1.1h-13.9c-0.6,0-1.1-0.5-1.1-1.1v-17.1c0-0.6,0.5-1.1,1.1-1.1h13.9c0.6,0,1.1,0.5,1.1,1.1V1430.6z
					 M2096.7,1575.8c0,0.6-0.5,1.1-1.1,1.1h-13.9c-0.6,0-1.1-0.5-1.1-1.1v-17.1c0-0.6,0.5-1.1,1.1-1.1h13.9c0.6,0,1.1,0.5,1.1,1.1
					V1575.8z M2096.7,1546.8c0,0.6-0.5,1.1-1.1,1.1h-13.9c-0.6,0-1.1-0.5-1.1-1.1v-17.1c0-0.6,0.5-1.1,1.1-1.1h13.9
					c0.6,0,1.1,0.5,1.1,1.1V1546.8z M2096.7,1517.7c0,0.6-0.5,1.1-1.1,1.1h-13.9c-0.6,0-1.1-0.5-1.1-1.1v-17.1
					c0-0.6,0.5-1.1,1.1-1.1h13.9c0.6,0,1.1,0.5,1.1,1.1V1517.7z M2096.7,1488.7c0,0.6-0.5,1.1-1.1,1.1h-13.9c-0.6,0-1.1-0.5-1.1-1.1
					v-17.1c0-0.6,0.5-1.1,1.1-1.1h13.9c0.6,0,1.1,0.5,1.1,1.1V1488.7z M2096.7,1459.6c0,0.6-0.5,1.1-1.1,1.1h-13.9
					c-0.6,0-1.1-0.5-1.1-1.1v-17.1c0-0.6,0.5-1.1,1.1-1.1h13.9c0.6,0,1.1,0.5,1.1,1.1V1459.6z M2096.7,1430.6c0,0.6-0.5,1.1-1.1,1.1
					h-13.9c-0.6,0-1.1-0.5-1.1-1.1v-17.1c0-0.6,0.5-1.1,1.1-1.1h13.9c0.6,0,1.1,0.5,1.1,1.1V1430.6z M2122.6,1575.8
					c0,0.6-0.5,1.1-1.1,1.1h-13.9c-0.6,0-1.1-0.5-1.1-1.1v-17.1c0-0.6,0.5-1.1,1.1-1.1h13.9c0.6,0,1.1,0.5,1.1,1.1V1575.8z
					 M2122.6,1546.8c0,0.6-0.5,1.1-1.1,1.1h-13.9c-0.6,0-1.1-0.5-1.1-1.1v-17.1c0-0.6,0.5-1.1,1.1-1.1h13.9c0.6,0,1.1,0.5,1.1,1.1
					V1546.8z M2122.6,1517.7c0,0.6-0.5,1.1-1.1,1.1h-13.9c-0.6,0-1.1-0.5-1.1-1.1v-17.1c0-0.6,0.5-1.1,1.1-1.1h13.9
					c0.6,0,1.1,0.5,1.1,1.1V1517.7z M2122.6,1488.7c0,0.6-0.5,1.1-1.1,1.1h-13.9c-0.6,0-1.1-0.5-1.1-1.1v-17.1
					c0-0.6,0.5-1.1,1.1-1.1h13.9c0.6,0,1.1,0.5,1.1,1.1V1488.7z M2122.6,1459.6c0,0.6-0.5,1.1-1.1,1.1h-13.9c-0.6,0-1.1-0.5-1.1-1.1
					v-17.1c0-0.6,0.5-1.1,1.1-1.1h13.9c0.6,0,1.1,0.5,1.1,1.1V1459.6z M2122.6,1430.6c0,0.6-0.5,1.1-1.1,1.1h-13.9
					c-0.6,0-1.1-0.5-1.1-1.1v-17.1c0-0.6,0.5-1.1,1.1-1.1h13.9c0.6,0,1.1,0.5,1.1,1.1V1430.6z"/>
                <path fill="#FFFFFF" d="M2003.1,1455.2c0-2.3-1.9-4.2-4.2-4.2h-101.4c-2.3,0-4.2,1.9-4.2,4.2v195c0,2.3,1.9,4.2,4.2,4.2H1999
					c2.3,0,4.2-1.9,4.2-4.2V1455.2z M1919.2,1640.3c0,0.7-0.5,1.2-1.2,1.2h-13.7c-0.7,0-1.2-0.5-1.2-1.2v-20.2
					c0-0.7,0.5-1.2,1.2-1.2h13.7c0.7,0,1.2,0.5,1.2,1.2V1640.3z M1919.2,1608c0,0.7-0.5,1.2-1.2,1.2h-13.7c-0.7,0-1.2-0.5-1.2-1.2
					v-20.2c0-0.7,0.5-1.2,1.2-1.2h13.7c0.7,0,1.2,0.5,1.2,1.2V1608z M1919.2,1578.9c0,0.7-0.5,1.2-1.2,1.2h-13.7
					c-0.7,0-1.2-0.5-1.2-1.2v-20.2c0-0.7,0.5-1.2,1.2-1.2h13.7c0.7,0,1.2,0.5,1.2,1.2V1578.9z M1919.2,1546.7c0,0.7-0.5,1.2-1.2,1.2
					h-13.7c-0.7,0-1.2-0.5-1.2-1.2v-20.2c0-0.7,0.5-1.2,1.2-1.2h13.7c0.7,0,1.2,0.5,1.2,1.2V1546.7z M1919.2,1514.4
					c0,0.7-0.5,1.2-1.2,1.2h-13.7c-0.7,0-1.2-0.5-1.2-1.2v-20.2c0-0.7,0.5-1.2,1.2-1.2h13.7c0.7,0,1.2,0.5,1.2,1.2V1514.4z
					 M1919.2,1482.1c0,0.7-0.5,1.2-1.2,1.2h-13.7c-0.7,0-1.2-0.5-1.2-1.2v-20.2c0-0.7,0.5-1.2,1.2-1.2h13.7c0.7,0,1.2,0.5,1.2,1.2
					V1482.1z M1945,1640.3c0,0.7-0.5,1.2-1.2,1.2h-13.7c-0.7,0-1.2-0.5-1.2-1.2v-20.2c0-0.7,0.5-1.2,1.2-1.2h13.7
					c0.7,0,1.2,0.5,1.2,1.2V1640.3z M1945,1608c0,0.7-0.5,1.2-1.2,1.2h-13.7c-0.7,0-1.2-0.5-1.2-1.2v-20.2c0-0.7,0.5-1.2,1.2-1.2
					h13.7c0.7,0,1.2,0.5,1.2,1.2V1608z M1945,1578.9c0,0.7-0.5,1.2-1.2,1.2h-13.7c-0.7,0-1.2-0.5-1.2-1.2v-20.2
					c0-0.7,0.5-1.2,1.2-1.2h13.7c0.7,0,1.2,0.5,1.2,1.2V1578.9z M1945,1546.7c0,0.7-0.5,1.2-1.2,1.2h-13.7c-0.7,0-1.2-0.5-1.2-1.2
					v-20.2c0-0.7,0.5-1.2,1.2-1.2h13.7c0.7,0,1.2,0.5,1.2,1.2V1546.7z M1945,1514.4c0,0.7-0.5,1.2-1.2,1.2h-13.7
					c-0.7,0-1.2-0.5-1.2-1.2v-20.2c0-0.7,0.5-1.2,1.2-1.2h13.7c0.7,0,1.2,0.5,1.2,1.2V1514.4z M1945,1482.1c0,0.7-0.5,1.2-1.2,1.2
					h-13.7c-0.7,0-1.2-0.5-1.2-1.2v-20.2c0-0.7,0.5-1.2,1.2-1.2h13.7c0.7,0,1.2,0.5,1.2,1.2V1482.1z M1967.6,1640.3
					c0,0.7-0.5,1.2-1.2,1.2h-13.7c-0.7,0-1.2-0.5-1.2-1.2v-20.2c0-0.7,0.5-1.2,1.2-1.2h13.7c0.7,0,1.2,0.5,1.2,1.2V1640.3z
					 M1967.6,1608c0,0.7-0.5,1.2-1.2,1.2h-13.7c-0.7,0-1.2-0.5-1.2-1.2v-20.2c0-0.7,0.5-1.2,1.2-1.2h13.7c0.7,0,1.2,0.5,1.2,1.2
					V1608z M1967.6,1578.9c0,0.7-0.5,1.2-1.2,1.2h-13.7c-0.7,0-1.2-0.5-1.2-1.2v-20.2c0-0.7,0.5-1.2,1.2-1.2h13.7
					c0.7,0,1.2,0.5,1.2,1.2V1578.9z M1967.6,1546.7c0,0.7-0.5,1.2-1.2,1.2h-13.7c-0.7,0-1.2-0.5-1.2-1.2v-20.2
					c0-0.7,0.5-1.2,1.2-1.2h13.7c0.7,0,1.2,0.5,1.2,1.2V1546.7z M1967.6,1514.4c0,0.7-0.5,1.2-1.2,1.2h-13.7c-0.7,0-1.2-0.5-1.2-1.2
					v-20.2c0-0.7,0.5-1.2,1.2-1.2h13.7c0.7,0,1.2,0.5,1.2,1.2V1514.4z M1967.6,1482.1c0,0.7-0.5,1.2-1.2,1.2h-13.7
					c-0.7,0-1.2-0.5-1.2-1.2v-20.2c0-0.7,0.5-1.2,1.2-1.2h13.7c0.7,0,1.2,0.5,1.2,1.2V1482.1z M1993.4,1640.3c0,0.7-0.5,1.2-1.2,1.2
					h-13.7c-0.7,0-1.2-0.5-1.2-1.2v-20.2c0-0.7,0.5-1.2,1.2-1.2h13.7c0.7,0,1.2,0.5,1.2,1.2V1640.3z M1993.4,1608
					c0,0.7-0.5,1.2-1.2,1.2h-13.7c-0.7,0-1.2-0.5-1.2-1.2v-20.2c0-0.7,0.5-1.2,1.2-1.2h13.7c0.7,0,1.2,0.5,1.2,1.2V1608z
					 M1993.4,1578.9c0,0.7-0.5,1.2-1.2,1.2h-13.7c-0.7,0-1.2-0.5-1.2-1.2v-20.2c0-0.7,0.5-1.2,1.2-1.2h13.7c0.7,0,1.2,0.5,1.2,1.2
					V1578.9z M1993.4,1546.7c0,0.7-0.5,1.2-1.2,1.2h-13.7c-0.7,0-1.2-0.5-1.2-1.2v-20.2c0-0.7,0.5-1.2,1.2-1.2h13.7
					c0.7,0,1.2,0.5,1.2,1.2V1546.7z M1993.4,1514.4c0,0.7-0.5,1.2-1.2,1.2h-13.7c-0.7,0-1.2-0.5-1.2-1.2v-20.2
					c0-0.7,0.5-1.2,1.2-1.2h13.7c0.7,0,1.2,0.5,1.2,1.2V1514.4z M1993.4,1482.1c0,0.7-0.5,1.2-1.2,1.2h-13.7c-0.7,0-1.2-0.5-1.2-1.2
					v-20.2c0-0.7,0.5-1.2,1.2-1.2h13.7c0.7,0,1.2,0.5,1.2,1.2V1482.1z"/>
			</g>
            <g>
				<path fill="#FFFFFF" d="M518.1,2275.4c-1.9,0-3.8-0.6-5.4-1.9c-3.5-3-4-8.2-1.1-11.8l25.7-30.8c3-3.5,8.2-4,11.8-1.1
					c3.5,3,4,8.2,1.1,11.8l-25.7,30.8C522.9,2274.3,520.5,2275.4,518.1,2275.4z M569.5,2213.7c-1.9,0-3.8-0.6-5.4-1.9
					c-3.5-3-4-8.2-1.1-11.8l25.7-30.8c3-3.5,8.2-4,11.8-1.1c3.5,3,4,8.2,1.1,11.8l-25.7,30.8
					C574.3,2212.7,571.9,2213.7,569.5,2213.7z M620.9,2152c-1.9,0-3.8-0.6-5.4-1.9c-3.5-3-4-8.2-1.1-11.8l25.7-30.8
					c3-3.5,8.2-4,11.8-1.1c3.5,3,4,8.2,1.1,11.8l-25.7,30.8C625.7,2151,623.3,2152,620.9,2152z M672.3,2090.4
					c-1.9,0-3.8-0.6-5.4-1.9c-3.5-3-4-8.2-1.1-11.8l25.7-30.8c3-3.5,8.2-4,11.8-1.1c3.5,3,4,8.2,1.1,11.8l-25.7,30.8
					C677.1,2089.3,674.7,2090.4,672.3,2090.4z M723.7,2028.7c-1.9,0-3.8-0.6-5.4-1.9c-3.5-3-4-8.2-1.1-11.8l25.7-30.8
					c3-3.5,8.2-4,11.8-1.1c3.5,3,4,8.2,1.1,11.8l-25.7,30.8C728.5,2027.7,726.1,2028.7,723.7,2028.7z M775.1,1967
					c-1.9,0-3.8-0.6-5.4-1.9c-3.5-3-4-8.2-1.1-11.8l25.7-30.8c3-3.5,8.2-4,11.8-1.1c3.5,3,4,8.2,1.1,11.8l-25.7,30.8
					C779.9,1966,777.5,1967,775.1,1967z M826.5,1905.3c-1.9,0-3.8-0.6-5.4-1.9c-3.5-3-4-8.2-1.1-11.8l25.7-30.8
					c3-3.5,8.2-4,11.8-1.1c3.5,3,4,8.2,1.1,11.8l-25.7,30.8C831.3,1904.3,828.9,1905.3,826.5,1905.3z M877.9,1843.7
					c-1.9,0-3.8-0.6-5.4-1.9c-3.5-3-4-8.2-1.1-11.8l25.7-30.8c3-3.5,8.2-4,11.8-1.1c3.5,3,4,8.2,1.1,11.8l-25.7,30.8
					C882.7,1842.6,880.3,1843.7,877.9,1843.7z M929.3,1782c-1.9,0-3.8-0.6-5.4-1.9c-3.5-3-4-8.2-1.1-11.8l25.7-30.8
					c3-3.5,8.2-4,11.8-1.1c3.5,3,4,8.2,1.1,11.8l-25.7,30.8C934.1,1781,931.7,1782,929.3,1782z M980.7,1720.3
					c-1.9,0-3.8-0.6-5.4-1.9c-3.5-3-4-8.2-1.1-11.8l25.7-30.8c3-3.5,8.2-4,11.8-1.1c3.5,3,4,8.2,1.1,11.8l-25.7,30.8
					C985.5,1719.3,983.1,1720.3,980.7,1720.3z M1032.1,1658.7c-1.9,0-3.8-0.6-5.4-1.9c-3.5-3-4-8.2-1.1-11.8l25.7-30.8
					c3-3.5,8.2-4,11.8-1.1c3.5,3,4,8.2,1.1,11.8l-25.7,30.8C1036.9,1657.6,1034.5,1658.7,1032.1,1658.7z M1091.5,1608.3
					c-3.4,0-6.6-2.1-7.8-5.5c-1.6-4.3,0.6-9.1,4.9-10.7l37.6-13.9c4.3-1.6,9.1,0.6,10.7,4.9c1.6,4.3-0.6,9.1-4.9,10.7l-37.6,13.9
					C1093.4,1608.1,1092.4,1608.3,1091.5,1608.3z M1166.8,1580.4c-3.4,0-6.6-2.1-7.8-5.5c-1.6-4.3,0.6-9.1,4.9-10.7l37.6-13.9
					c4.3-1.6,9.1,0.6,10.7,4.9c1.6,4.3-0.6,9.1-4.9,10.7l-37.6,13.9C1168.7,1580.2,1167.7,1580.4,1166.8,1580.4z M1242,1552.5
					c-3.4,0-6.6-2.1-7.8-5.5c-1.6-4.3,0.6-9.1,4.9-10.7l37.6-13.9c4.3-1.6,9.1,0.6,10.7,4.9c1.6,4.3-0.6,9.1-4.9,10.7l-37.6,13.9
					C1244,1552.3,1243,1552.5,1242,1552.5z M1317.3,1524.6c-3.4,0-6.6-2.1-7.8-5.5c-1.6-4.3,0.6-9.1,4.9-10.7l14.6-5.4
					c7.4-3.2,14.7-6.4,22-9.6c4.2-1.9,9.2,0.1,11,4.3c1.9,4.2-0.1,9.2-4.3,11c-7.4,3.3-14.8,6.5-22.3,9.8l-0.4,0.2l-14.8,5.5
					C1319.3,1524.5,1318.3,1524.6,1317.3,1524.6z M1391.1,1493c-3.2,0-6.2-1.8-7.6-4.9c-1.9-4.2,0-9.2,4.2-11.1
					c12.7-5.8,25-11.4,36.3-16.8c4.2-2,9.2-0.2,11.1,4c2,4.2,0.2,9.2-4,11.1c-11.5,5.4-23.8,11.1-36.6,16.9
					C1393.4,1492.8,1392.3,1493,1391.1,1493z M1463.7,1458.7c-3.1,0-6-1.7-7.5-4.7c-2.1-4.1-0.4-9.2,3.8-11.2
					c12.4-6.1,24.4-12.3,35.6-18.2c4.1-2.2,9.1-0.6,11.3,3.5c2.2,4.1,0.6,9.1-3.5,11.3c-11.3,6-23.4,12.2-35.9,18.4
					C1466.2,1458.5,1465,1458.7,1463.7,1458.7z M1534.7,1421.2c-2.9,0-5.7-1.5-7.3-4.2c-2.3-4-0.9-9.1,3.1-11.4
					c12.1-6.9,23.5-13.8,34.1-20.5c3.9-2.5,9.1-1.3,11.5,2.6c2.5,3.9,1.3,9.1-2.6,11.5c-10.8,6.8-22.4,13.9-34.7,20.9
					C1537.5,1420.8,1536.1,1421.2,1534.7,1421.2z M1602.3,1377.9c-2.6,0-5.1-1.2-6.8-3.4c-2.7-3.7-1.9-9,1.8-11.7
					c11.3-8.2,21.6-16.5,30.7-24.6c3.5-3.1,8.7-2.7,11.8,0.7c3.1,3.5,2.7,8.7-0.7,11.8c-9.5,8.4-20.3,17-32,25.5
					C1605.7,1377.4,1604,1377.9,1602.3,1377.9z M2156.5,1372.8l-3.1-1.5c-11.4-5.5-23.4-10.7-35.6-15.6c-4.3-1.7-6.4-6.6-4.7-10.9
					c1.7-4.3,6.6-6.4,10.9-4.7c11.9,4.7,23.5,9.8,34.6,15.1c3.1,0.4,5.8,2.4,6.9,5.5c1.5,4.4-0.7,9.1-5.1,10.7L2156.5,1372.8z
					 M2195.4,1358.5c-3.4,0-6.7-2.1-7.9-5.6c-1.5-4.4,0.7-9.1,5.1-10.7l37.8-13.5c4.4-1.5,9.1,0.7,10.7,5.1
					c1.5,4.4-0.7,9.1-5.1,10.7l-37.8,13.5C2197.3,1358.3,2196.3,1358.5,2195.4,1358.5z M2083.1,1342.7c-0.9,0-1.7-0.1-2.6-0.4
					c-12.2-4-25-7.8-38-11.3c-4.5-1.2-7.1-5.8-5.9-10.2c1.2-4.5,5.8-7.1,10.2-5.9c13.3,3.6,26.4,7.4,38.9,11.5
					c4.4,1.4,6.8,6.2,5.3,10.5C2089.9,1340.4,2086.6,1342.7,2083.1,1342.7z M2271,1331.5c-3.4,0-6.7-2.1-7.9-5.6
					c-1.5-4.4,0.7-9.1,5.1-10.7l37.8-13.5c4.4-1.5,9.1,0.7,10.7,5.1c1.5,4.4-0.7,9.1-5.1,10.7l-37.8,13.5
					C2272.9,1331.4,2272,1331.5,2271,1331.5z M1661.8,1324.4c-1.9,0-3.8-0.7-5.4-2c-3.5-3-3.9-8.3-1-11.8
					c8.1-9.6,14.9-19.2,20.1-28.7l2.4-4.3l8.3,0c4.6,0,8.4,3.7,8.4,8.4c0,4.1-2.9,7.5-6.8,8.2c-5.4,9.1-11.9,18.2-19.6,27.3
					C1666.6,1323.4,1664.2,1324.4,1661.8,1324.4z M2005.6,1321.9c-0.6,0-1.2-0.1-1.8-0.2c-12.6-2.7-25.8-5.3-39.1-7.6
					c-4.6-0.8-7.6-5.1-6.8-9.7c0.8-4.6,5.1-7.6,9.7-6.8c13.5,2.3,26.9,4.9,39.7,7.7c4.5,1,7.4,5.4,6.4,9.9
					C2012.9,1319.2,2009.4,1321.9,2005.6,1321.9z M1926.5,1308.1c-0.4,0-0.8,0-1.1-0.1c-12.8-1.7-26.1-3.3-39.6-4.7
					c-4.6-0.5-7.9-4.6-7.5-9.2c0.5-4.6,4.5-8,9.2-7.5c13.7,1.4,27.2,3,40.1,4.8c4.6,0.6,7.8,4.8,7.2,9.4
					C1934.2,1305.1,1930.6,1308.1,1926.5,1308.1z M2346.7,1304.6c-3.4,0-6.7-2.1-7.9-5.6c-1.5-4.4,0.7-9.1,5.1-10.7l9.9-3.5
					c4.4-1.5,9.1,0.7,10.7,5.1s-0.7,9.1-5.1,10.7l-9.9,3.5C2348.5,1304.4,2347.6,1304.6,2346.7,1304.6z M1846.7,1299.8
					c-0.2,0-0.4,0-0.6,0c-12.9-1-26.3-1.8-39.9-2.6c-4.6-0.2-8.2-4.2-7.9-8.8c0.2-4.6,4.2-8.2,8.8-7.9c13.7,0.7,27.2,1.6,40.3,2.6
					c4.6,0.4,8.1,4.4,7.7,9C1854.7,1296.5,1851,1299.8,1846.7,1299.8z M1766.5,1295.5c-0.1,0-0.2,0-0.3,0c-13-0.4-26.4-0.7-40-0.9
					c-4.6-0.1-8.3-3.9-8.2-8.5c0.1-4.6,3.8-8.4,8.5-8.2c13.6,0.2,27.2,0.5,40.3,0.9c4.6,0.2,8.2,4,8.1,8.6
					C1774.7,1292,1771,1295.5,1766.5,1295.5z"/>
                <path fill="#FFFFFF" d="M2159.4,2347.2c-0.9,0-1.8-0.2-2.8-0.5c-4.4-1.5-6.7-6.3-5.1-10.6c4.4-12.6,9.1-25.4,13.9-37.9
					c1.6-4.3,6.5-6.5,10.8-4.8c4.3,1.7,6.5,6.5,4.8,10.8c-4.7,12.4-9.3,25-13.7,37.4C2166.1,2345,2162.8,2347.2,2159.4,2347.2z
					 M644,2346.9c-3.3,0-6.4-2-7.7-5.2c-1.7-4.3,0.3-9.2,4.6-10.9c12.5-5.1,24.9-10.1,37.4-15c4.3-1.7,9.2,0.4,10.9,4.7
					c1.7,4.3-0.4,9.2-4.7,10.9c-12.4,4.9-24.8,9.9-37.2,15C646.2,2346.7,645.1,2346.9,644,2346.9z M2129,2337.1
					c-1.5,0-2.9-0.4-4.3-1.2c-11.3-6.8-23-13.5-34.5-20.1c-4-2.3-5.4-7.4-3.1-11.4c2.3-4,7.4-5.4,11.4-3.1
					c11.7,6.6,23.4,13.4,34.9,20.3c4,2.4,5.3,7.5,2.9,11.5C2134.6,2335.6,2131.8,2337.1,2129,2337.1z M718.8,2317.3
					c-3.4,0-6.5-2-7.8-5.4c-1.7-4.3,0.5-9.1,4.8-10.8c12.6-4.9,25.1-9.6,37.6-14.4c4.3-1.6,9.1,0.6,10.8,4.9
					c1.6,4.3-0.6,9.1-4.9,10.8c-12.5,4.7-25,9.5-37.5,14.3C720.8,2317.1,719.8,2317.3,718.8,2317.3z M2059.1,2297.4
					c-1.3,0-2.7-0.3-4-1c-11.7-6.3-23.6-12.6-35.4-18.6c-4.1-2.1-5.7-7.1-3.6-11.3c2.1-4.1,7.1-5.7,11.3-3.6
					c11.9,6.1,23.9,12.4,35.7,18.8c4.1,2.2,5.6,7.3,3.4,11.3C2065,2295.9,2062.1,2297.4,2059.1,2297.4z M794,2288.9
					c-3.4,0-6.6-2.1-7.9-5.5c-1.6-4.3,0.6-9.1,5-10.7c12.6-4.6,25.3-9.2,37.9-13.7c4.3-1.5,9.1,0.7,10.7,5.1
					c1.5,4.4-0.7,9.1-5.1,10.7c-12.6,4.5-25.1,9-37.7,13.6C795.9,2288.8,795,2288.9,794,2288.9z M2188.1,2272.2
					c-1.1,0-2.2-0.2-3.2-0.7c-4.3-1.8-6.3-6.7-4.5-10.9c5.1-12.3,10.6-24.8,16.1-37c1.9-4.2,6.9-6.1,11.1-4.2
					c4.2,1.9,6.1,6.9,4.2,11.1c-5.5,12.1-10.8,24.4-15.9,36.6C2194.5,2270.3,2191.4,2272.2,2188.1,2272.2z M869.8,2262.1
					c-3.5,0-6.7-2.2-7.9-5.6c-1.5-4.4,0.8-9.1,5.2-10.6c12.7-4.4,25.5-8.7,38.2-12.9c4.4-1.4,9.1,0.9,10.6,5.3
					c1.5,4.4-0.9,9.1-5.3,10.6c-12.7,4.2-25.3,8.5-38,12.8C871.6,2261.9,870.7,2262.1,869.8,2262.1z M1987.7,2260.8
					c-1.2,0-2.5-0.3-3.7-0.8c-11.9-5.8-24-11.5-36.1-17.1c-4.2-1.9-6-6.9-4.1-11.1c1.9-4.2,6.9-6,11.1-4.1
					c12.2,5.6,24.5,11.4,36.4,17.3c4.2,2,5.9,7,3.9,11.2C1993.8,2259.1,1990.8,2260.8,1987.7,2260.8z M946.1,2236.7
					c-3.5,0-6.8-2.3-8-5.8c-1.4-4.4,1-9.1,5.4-10.5c12.8-4.1,25.6-8.1,38.4-12.1c4.4-1.4,9.1,1.1,10.5,5.5c1.4,4.4-1.1,9.1-5.5,10.5
					c-12.7,3.9-25.5,7.9-38.3,12C947.8,2236.6,946.9,2236.7,946.1,2236.7z M1914.8,2227.2c-1.1,0-2.3-0.2-3.4-0.7
					c-12.1-5.3-24.5-10.6-36.8-15.7c-4.3-1.8-6.3-6.7-4.5-10.9c1.8-4.3,6.7-6.3,10.9-4.5c12.4,5.1,24.9,10.5,37.1,15.8
					c4.2,1.9,6.2,6.8,4.3,11C1921.1,2225.3,1918.1,2227.2,1914.8,2227.2z M1022.9,2213c-3.6,0-6.9-2.4-8-6
					c-1.3-4.4,1.2-9.1,5.6-10.4c12.8-3.8,25.8-7.6,38.7-11.2c4.5-1.3,9.1,1.3,10.3,5.8c1.3,4.4-1.3,9.1-5.8,10.3
					c-12.9,3.7-25.8,7.4-38.5,11.2C1024.5,2212.9,1023.7,2213,1022.9,2213z M2221.2,2199.1c-1.2,0-2.5-0.3-3.7-0.8
					c-4.2-2-5.9-7-3.9-11.2c5.8-12,11.9-24.1,18.2-36c2.1-4.1,7.2-5.7,11.3-3.5c4.1,2.1,5.7,7.2,3.5,11.3
					c-6.2,11.8-12.2,23.8-18,35.6C2227.2,2197.4,2224.3,2199.1,2221.2,2199.1z M1840.7,2196.4c-1,0-2-0.2-3.1-0.6
					c-12.2-4.8-24.8-9.6-37.4-14.2c-4.3-1.6-6.5-6.4-4.9-10.7c1.6-4.3,6.4-6.5,10.7-4.9c12.7,4.7,25.3,9.5,37.7,14.4
					c4.3,1.7,6.4,6.5,4.7,10.8C1847.2,2194.4,1844,2196.4,1840.7,2196.4z M1100.2,2191.1c-3.7,0-7.1-2.5-8.1-6.2
					c-1.2-4.5,1.4-9.1,5.9-10.3c13-3.5,26.1-7,39-10.3c4.5-1.1,9,1.5,10.2,6c1.2,4.5-1.5,9-6,10.2c-12.8,3.3-25.8,6.7-38.8,10.3
					C1101.7,2191,1101,2191.1,1100.2,2191.1z M1178.1,2171c-3.8,0-7.2-2.6-8.1-6.4c-1.1-4.5,1.6-9,6.1-10.1
					c13-3.2,26.2-6.3,39.2-9.3c4.5-1.1,9,1.8,10,6.3c1,4.5-1.8,9-6.3,10c-12.9,3-26.1,6.1-39,9.3
					C1179.4,2170.9,1178.7,2171,1178.1,2171z M1765.4,2168.6c-0.9,0-1.8-0.2-2.8-0.5c-12.5-4.4-25.2-8.7-37.9-12.8
					c-4.4-1.4-6.8-6.2-5.3-10.6c1.4-4.4,6.2-6.8,10.6-5.3c12.8,4.2,25.6,8.5,38.2,12.9c4.4,1.5,6.7,6.3,5.1,10.7
					C1772.1,2166.4,1768.9,2168.6,1765.4,2168.6z M1256.4,2152.9c-3.9,0-7.3-2.7-8.2-6.6c-1-4.5,1.9-9,6.4-9.9
					c13.2-2.9,26.4-5.7,39.4-8.3c4.5-0.9,8.9,2,9.9,6.5c0.9,4.5-2,8.9-6.5,9.9c-12.9,2.6-26.1,5.4-39.2,8.2
					C1257.6,2152.8,1257,2152.9,1256.4,2152.9z M1689.1,2143.5c-0.8,0-1.6-0.1-2.5-0.4c-12.7-3.9-25.6-7.8-38.3-11.5
					c-4.4-1.3-7-5.9-5.7-10.4c1.3-4.4,5.9-7,10.4-5.7c12.8,3.7,25.8,7.6,38.6,11.6c4.4,1.4,6.9,6,5.5,10.5
					C1696,2141.2,1692.7,2143.5,1689.1,2143.5z M1335.1,2136.9c-3.9,0-7.5-2.8-8.2-6.8c-0.9-4.5,2.1-8.9,6.7-9.8
					c13.2-2.5,26.6-4.9,39.7-7.2c4.6-0.8,8.9,2.3,9.7,6.8c0.8,4.6-2.3,8.9-6.8,9.7c-13,2.3-26.3,4.7-39.4,7.1
					C1336.2,2136.8,1335.7,2136.9,1335.1,2136.9z M2258.3,2128c-1.4,0-2.8-0.3-4.1-1.1c-4-2.2-5.5-7.3-3.3-11.4
					c6.4-11.6,13.2-23.4,20-35c2.3-4,7.5-5.3,11.4-3c4,2.3,5.3,7.5,3,11.4c-6.8,11.5-13.4,23.2-19.8,34.7
					C2264.1,2126.4,2261.2,2128,2258.3,2128z M1414.3,2123.1c-4,0-7.6-2.9-8.2-7.1c-0.7-4.6,2.4-8.8,7-9.6c13.3-2.1,26.7-4.1,39.9-6
					c4.6-0.7,8.8,2.5,9.5,7.1c0.7,4.6-2.5,8.8-7.1,9.5c-13,1.9-26.4,3.9-39.6,6C1415.2,2123.1,1414.8,2123.1,1414.3,2123.1z
					 M1612,2121.1c-0.7,0-1.5-0.1-2.2-0.3c-12.7-3.4-25.7-6.9-38.7-10.2c-4.5-1.1-7.2-5.7-6-10.2c1.1-4.5,5.7-7.2,10.2-6
					c13.1,3.3,26.2,6.8,39,10.2c4.5,1.2,7.1,5.8,5.9,10.3C1619.1,2118.6,1615.7,2121.1,1612,2121.1z M1493.9,2111.8
					c-4.2,0-7.8-3.1-8.3-7.3c-0.6-4.6,2.7-8.8,7.2-9.3c13.2-1.7,26.6-3.3,40-4.8c4.6-0.5,8.7,2.8,9.2,7.4c0.5,4.6-2.8,8.7-7.4,9.2
					c-13.3,1.5-26.7,3.1-39.8,4.7C1494.6,2111.8,1494.2,2111.8,1493.9,2111.8z M2298.9,2058.8c-1.5,0-3-0.4-4.4-1.3
					c-3.9-2.4-5.1-7.6-2.7-11.5c6.9-11.2,14.2-22.6,21.6-34.1c2.5-3.9,7.7-5,11.6-2.5c3.9,2.5,5,7.7,2.5,11.6
					c-7.3,11.3-14.5,22.7-21.4,33.8C2304.4,2057.4,2301.7,2058.8,2298.9,2058.8z M2342.5,1991.4c-1.6,0-3.2-0.5-4.7-1.4
					c-3.8-2.6-4.8-7.8-2.3-11.6c7.4-10.9,15.1-22.1,22.8-33.2c2.7-3.8,7.9-4.7,11.6-2c3.8,2.7,4.7,7.9,2,11.6
					c-7.7,11-15.4,22.1-22.7,32.9C2347.8,1990.1,2345.2,1991.4,2342.5,1991.4z M2388.6,1925.7c-1.7,0-3.4-0.5-4.9-1.6
					c-3.7-2.7-4.6-7.9-1.9-11.7c7.6-10.5,15.6-21.4,23.9-32.4c2.8-3.7,8-4.5,11.7-1.7c3.7,2.8,4.5,8,1.7,11.7
					c-8.2,11-16.2,21.8-23.7,32.2C2393.7,1924.5,2391.2,1925.7,2388.6,1925.7z M2436.7,1861.4c-1.8,0-3.6-0.6-5.1-1.7
					c-3.7-2.8-4.3-8.1-1.5-11.7c8-10.4,16.3-21.1,24.7-31.7c2.9-3.6,8.1-4.2,11.7-1.4c3.6,2.9,4.3,8.1,1.4,11.7
					c-8.4,10.6-16.6,21.2-24.6,31.6C2441.7,1860.3,2439.2,1861.4,2436.7,1861.4z M2486.4,1798.4c-1.8,0-3.7-0.6-5.2-1.9
					c-3.6-2.9-4.2-8.2-1.3-11.8c8.3-10.3,16.8-20.7,25.4-31.2c2.9-3.6,8.2-4.1,11.8-1.1c3.6,2.9,4.1,8.2,1.1,11.8
					c-8.6,10.4-17,20.8-25.3,31.1C2491.2,1797.3,2488.8,1798.4,2486.4,1798.4z M2541.3,1743.4c-4,0-7.5-2.9-8.2-6.9
					c-0.8-4.6,2.2-8.9,6.8-9.7c12.3-2.2,25.2-5.2,38.2-8.9c4.4-1.3,9.1,1.3,10.3,5.7c1.3,4.4-1.3,9.1-5.7,10.3
					c-13.6,3.9-27,7-40,9.3C2542.3,1743.4,2541.8,1743.4,2541.3,1743.4z M2618.5,1721.6c-3.4,0-6.5-2-7.8-5.4
					c-1.6-4.3,0.5-9.1,4.8-10.8c12-4.6,24.3-9.8,36.4-15.5c4.2-2,9.2-0.2,11.1,4c2,4.2,0.2,9.2-4,11.1c-12.5,5.9-25.1,11.3-37.5,16
					C2620.5,1721.4,2619.5,1721.6,2618.5,1721.6z M2691.2,1687.5c-2.9,0-5.8-1.5-7.3-4.3c-2.2-4-0.8-9.1,3.2-11.4
					c11.4-6.4,22.9-13.2,34-20.4c3.9-2.5,9.1-1.4,11.6,2.5c2.5,3.9,1.4,9.1-2.5,11.6c-11.4,7.4-23.2,14.4-34.9,20.9
					C2694,1687.2,2692.6,1687.5,2691.2,1687.5z M2758.6,1644c-2.6,0-5.1-1.2-6.7-3.4c-2.7-3.7-2-9,1.8-11.7
					c10.6-7.8,21.1-16.1,31.1-24.5c3.5-3,8.8-2.5,11.8,1c3,3.5,2.5,8.8-1,11.8c-10.3,8.7-21,17.2-31.9,25.2
					C2762.1,1643.5,2760.4,1644,2758.6,1644z M2820,1592.3c-2.2,0-4.4-0.9-6-2.6c-3.2-3.3-3.1-8.6,0.2-11.8
					c9.6-9.2,18.8-18.7,27.6-28.4c3.1-3.4,8.4-3.7,11.8-0.6c3.4,3.1,3.7,8.4,0.6,11.8c-9,9.9-18.5,19.7-28.4,29.2
					C2824.2,1591.5,2822.1,1592.3,2820,1592.3z M2873.8,1532.8c-1.8,0-3.6-0.6-5.1-1.8c-3.6-2.8-4.3-8.1-1.4-11.7
					c8.2-10.5,15.9-21.3,23.1-32c2.5-3.9,7.7-4.9,11.6-2.4c3.9,2.5,4.9,7.7,2.4,11.6c-7.4,11.1-15.4,22.3-23.8,33.1
					C2878.8,1531.7,2876.3,1532.8,2873.8,1532.8z M2918,1465.8c-1.3,0-2.7-0.3-4-1c-4.1-2.2-5.6-7.3-3.4-11.3
					c6.3-11.6,12.1-23.6,17.2-35.4c1.8-4.2,6.7-6.2,11-4.4c4.2,1.8,6.2,6.7,4.4,11c-5.3,12.3-11.3,24.7-17.9,36.8
					C2923.8,1464.3,2920.9,1465.8,2918,1465.8z M2949.5,1392.2c-0.8,0-1.7-0.1-2.5-0.4c-4.4-1.4-6.9-6.1-5.5-10.5
					c3.9-12.5,7.2-25.3,9.7-38c0.9-4.5,5.3-7.5,9.8-6.6c4.5,0.9,7.5,5.3,6.6,9.8c-2.6,13.2-6.1,26.6-10.2,39.7
					C2956.3,1389.9,2953,1392.2,2949.5,1392.2z M2965.1,1313.6c-0.2,0-0.5,0-0.7,0c-4.6-0.4-8-4.4-7.6-9c0.6-7.1,1-14.4,1.1-21.5
					c0.1-4.6,3.9-8.4,8.5-8.2c4.6,0.1,8.3,3.9,8.2,8.5c-0.2,7.5-0.5,15.1-1.2,22.5C2973,1310.3,2969.3,1313.6,2965.1,1313.6z"/>
                <path fill="#FFFFFF" d="M2585.5,2807.5c-13.8,0-27.5-0.8-41-2.3c-4.6-0.5-7.9-4.7-7.4-9.3c0.5-4.6,4.6-7.9,9.3-7.4
					c12.9,1.5,25.9,2.2,38.8,2.2c4.6,0,8.5,3.7,8.5,8.4S2590.1,2807.5,2585.5,2807.5z M2625.5,2805.2c-4.2,0-7.8-3.1-8.3-7.4
					c-0.5-4.6,2.7-8.7,7.3-9.3c12.9-1.5,25.9-3.8,38.5-6.8c4.5-1.1,9,1.7,10.1,6.2c1.1,4.5-1.7,9-6.2,10.1
					c-13.3,3.2-26.9,5.6-40.5,7.2C2626.2,2805.1,2625.8,2805.2,2625.5,2805.2z M2505.9,2798.5c-0.6,0-1.2-0.1-1.9-0.2
					c-13.2-3-26.5-6.8-39.4-11.3c-4.4-1.5-6.7-6.3-5.2-10.6c1.5-4.4,6.2-6.7,10.6-5.2c12.4,4.3,25.1,7.9,37.7,10.8
					c4.5,1,7.3,5.5,6.3,10C2513.2,2795.9,2509.7,2798.5,2505.9,2798.5z M2703.4,2786.6c-3.4,0-6.6-2.1-7.9-5.5
					c-1.6-4.3,0.6-9.1,5-10.7c12.1-4.4,24.2-9.7,35.9-15.5c4.1-2.1,9.2-0.4,11.2,3.7c2.1,4.1,0.4,9.2-3.7,11.2
					c-12.3,6.2-24.9,11.6-37.7,16.3C2705.3,2786.4,2704.4,2786.6,2703.4,2786.6z M2430.1,2772.5c-1.2,0-2.4-0.3-3.5-0.8
					c-12.2-5.7-24.4-12.1-36.2-19.1c-4-2.4-5.3-7.5-2.9-11.5c2.4-4,7.5-5.3,11.5-2.9c11.3,6.7,23,12.9,34.7,18.3
					c4.2,1.9,6,6.9,4.1,11.1C2436.3,2770.7,2433.3,2772.5,2430.1,2772.5z M2775,2750.7c-2.7,0-5.4-1.3-7-3.8
					c-2.5-3.9-1.4-9.1,2.5-11.6c8.6-5.6,17.1-11.6,25.3-18c3.7-2.8,8.9-2.2,11.7,1.5c2.8,3.7,2.2,8.9-1.5,11.7
					c-8.6,6.6-17.5,12.9-26.4,18.8C2778.2,2750.2,2776.6,2750.7,2775,2750.7z M2361.2,2731.6c-1.7,0-3.4-0.5-4.9-1.6
					c-10.9-8-21.6-16.6-31.9-25.6c-3.5-3.1-3.8-8.3-0.7-11.8c3.1-3.5,8.3-3.8,11.8-0.7c9.9,8.7,20.2,17,30.7,24.7
					c3.7,2.7,4.5,8,1.8,11.7C2366.3,2730.5,2363.7,2731.6,2361.2,2731.6z M2301,2678.6c-2.2,0-4.4-0.9-6.1-2.6
					c-9.3-9.7-18.3-20.1-26.8-30.8c-2.9-3.6-2.3-8.9,1.3-11.8c3.6-2.9,8.9-2.3,11.8,1.3c8.3,10.3,17,20.3,25.9,29.7
					c3.2,3.3,3,8.6-0.3,11.8C2305.2,2677.9,2303.1,2678.6,2301,2678.6z M2250.9,2616.1c-2.7,0-5.3-1.3-6.9-3.7
					c-7.5-11.1-14.7-22.8-21.5-34.7c-2.3-4-0.9-9.1,3.1-11.4c4-2.3,9.1-0.9,11.4,3.1c6.5,11.5,13.5,22.8,20.8,33.6
					c2.6,3.8,1.6,9-2.3,11.6C2254.2,2615.6,2252.6,2616.1,2250.9,2616.1z M2211.3,2546.3c-3.1,0-6.1-1.8-7.6-4.8
					c-5.7-12.1-11.1-24.7-16.1-37.4c-1.7-4.3,0.5-9.1,4.8-10.8c4.3-1.7,9.2,0.5,10.8,4.8c4.8,12.3,10.1,24.6,15.6,36.3
					c2,4.2,0.2,9.2-4,11.1C2213.8,2546.1,2212.5,2546.3,2211.3,2546.3z M2182.2,2471.6c-3.6,0-6.9-2.3-8-5.9
					c-4-12.8-7.7-26-10.9-39.2c-1.1-4.5,1.6-9,6.1-10.1c4.5-1.1,9,1.6,10.1,6.1c3.2,12.9,6.7,25.7,10.6,38.1
					c1.4,4.4-1.1,9.1-5.5,10.5C2183.9,2471.5,2183,2471.6,2182.2,2471.6z M2163,2393.8c-4,0-7.5-2.8-8.2-6.9
					c-2.4-13.2-4.5-26.7-6.1-40.1c-0.6-4.6,2.7-8.8,7.3-9.3c4.6-0.6,8.8,2.7,9.3,7.3c1.6,13.1,3.6,26.3,6,39.2
					c0.8,4.5-2.2,8.9-6.7,9.7C2164,2393.7,2163.5,2393.8,2163,2393.8z"/>
                <path fill="#FFFFFF" d="M2646.6,1709.9c-1.1,0-2.2-0.2-3.2-0.6c-4.3-1.8-6.3-6.7-4.5-10.9c5.1-12.3,10.1-24.8,14.7-37
					c1.6-4.3,6.4-6.5,10.8-4.9c4.3,1.6,6.5,6.4,4.9,10.8c-4.7,12.4-9.7,25.1-14.9,37.6C2653,1708,2649.9,1709.9,2646.6,1709.9z
					 M2674.8,1634.8c-0.9,0-1.8-0.1-2.6-0.4c-4.4-1.5-6.8-6.2-5.3-10.6c4.2-12.7,8.2-25.4,11.8-38c1.3-4.4,5.9-7,10.4-5.7
					c4.4,1.3,7,5.9,5.7,10.4c-3.7,12.8-7.7,25.8-12,38.6C2681.5,1632.5,2678.3,1634.8,2674.8,1634.8z M2697,1557.6
					c-0.7,0-1.3-0.1-2-0.2c-4.5-1.1-7.2-5.6-6.1-10.1c3.2-13,6-26,8.5-38.8c0.9-4.5,5.3-7.5,9.8-6.6c4.5,0.9,7.5,5.3,6.6,9.8
					c-2.6,13-5.5,26.4-8.7,39.6C2704.2,1555.1,2700.8,1557.6,2697,1557.6z M2712.5,1478.9c-0.4,0-0.8,0-1.2-0.1
					c-4.6-0.7-7.7-4.9-7.1-9.5c1.9-13.2,3.6-26.4,4.8-39.4c0.4-4.6,4.5-8,9.1-7.5c4.6,0.4,8,4.5,7.5,9.1
					c-1.3,13.3-2.9,26.8-4.9,40.3C2720.1,1475.9,2716.5,1478.9,2712.5,1478.9z M2720.1,1399c-0.1,0-0.3,0-0.4,0
					c-4.6-0.2-8.2-4.1-8-8.7c0.5-10.8,0.7-21.7,0.7-32.5c0-2.4,0-4.8,0-7.2c0-4.6,3.7-8.4,8.3-8.4c0,0,0.1,0,0.1,0
					c4.6,0,8.3,3.7,8.4,8.3c0,2.5,0,4.9,0,7.4c0,10.9-0.2,22.1-0.7,33.2C2728.3,1395.5,2724.6,1399,2720.1,1399z M2719.3,1318.8
					c-4.4,0-8-3.4-8.3-7.8c-0.9-13.2-2.1-26.5-3.7-39.5c-0.6-4.6,2.7-8.8,7.3-9.3c4.6-0.6,8.8,2.7,9.3,7.3
					c1.6,13.3,2.9,26.9,3.8,40.4c0.3,4.6-3.2,8.6-7.8,8.9C2719.7,1318.8,2719.5,1318.8,2719.3,1318.8z M2709.5,1239.1
					c-4,0-7.5-2.8-8.2-6.9c-2.3-12.9-5.1-26-8.2-38.8c-1.1-4.5,1.7-9,6.2-10.1c4.5-1.1,9,1.7,10.1,6.2c3.1,13.1,6,26.5,8.4,39.7
					c0.8,4.5-2.2,8.9-6.7,9.7C2710.5,1239.1,2710,1239.1,2709.5,1239.1z M2690.8,1161.1c-3.6,0-6.9-2.3-8-6
					c-2.6-8.8-5.5-17.8-8.5-26.6c-1.5-4.4,0.8-9.1,5.2-10.6c4.4-1.5,9.1,0.8,10.6,5.2c3.1,9,6,18.2,8.7,27.2
					c1.3,4.4-1.2,9.1-5.6,10.4C2692.4,1161,2691.6,1161.1,2690.8,1161.1z"/>
                <path fill="#FFFFFF" d="M1057.2,1589.8c-3.5,0-6.8-2.2-7.9-5.7c-4.2-12.9-8.1-26-11.5-39c-1.2-4.5,1.5-9,6-10.2
					c4.5-1.2,9,1.5,10.2,6c3.3,12.6,7.1,25.4,11.2,38c1.4,4.4-0.9,9.1-5.3,10.6C1059,1589.7,1058.1,1589.8,1057.2,1589.8z
					 M1036.9,1512.2c-3.9,0-7.4-2.8-8.2-6.8c-2.6-13.3-4.8-26.8-6.5-40.2c-0.6-4.6,2.6-8.8,7.2-9.4c4.6-0.6,8.8,2.6,9.4,7.2
					c1.7,13,3.8,26.2,6.3,39.1c0.9,4.5-2.1,8.9-6.6,9.8C1038,1512.2,1037.5,1512.2,1036.9,1512.2z M1026.7,1432.6
					c-4.4,0-8.1-3.4-8.3-7.8c-0.8-13.2-1.2-26.5-1.2-39.8v-0.9c0-4.6,3.7-8.4,8.4-8.4c4.6,0,8.4,3.7,8.4,8.4v0.9
					c0,12.9,0.4,25.9,1.2,38.7c0.3,4.6-3.2,8.6-7.8,8.9C1027.1,1432.6,1026.9,1432.6,1026.7,1432.6z M1026.8,1352.4
					c-0.2,0-0.4,0-0.5,0c-4.6-0.3-8.1-4.3-7.8-8.9c0.9-13.3,2.1-27,3.8-40.5c0.6-4.6,4.7-7.8,9.3-7.3c4.6,0.6,7.8,4.7,7.3,9.3
					c-1.6,13.2-2.9,26.5-3.7,39.5C1034.9,1349,1031.2,1352.4,1026.8,1352.4z M1036.6,1272.7c-0.5,0-1,0-1.5-0.1
					c-4.5-0.8-7.6-5.2-6.7-9.7c2.4-13.1,5.2-26.5,8.3-39.7c1.1-4.5,5.6-7.3,10.1-6.2c4.5,1.1,7.3,5.6,6.2,10.1
					c-3.1,13-5.8,26-8.2,38.8C1044.1,1269.9,1040.6,1272.7,1036.6,1272.7z M1055.1,1194.7c-0.8,0-1.6-0.1-2.3-0.3
					c-4.4-1.3-7-5.9-5.7-10.4c3.7-12.7,7.8-25.7,12.2-38.6c1.5-4.4,6.2-6.7,10.6-5.2c4.4,1.5,6.7,6.2,5.2,10.6
					c-4.3,12.7-8.4,25.4-12,37.9C1062.1,1192.3,1058.8,1194.7,1055.1,1194.7z"/>
			</g>
            <g>
				<g>
					<g>
						<g>
							<linearGradient id="SVGID_3_" gradientUnits="userSpaceOnUse" x1="2359.8389" y1="-221.4767"
                                            x2="2359.8389" y2="628.157">
								<stop offset="0" style="stop-color:#FF928E"/>
                                <stop offset="1" style="stop-color:#FE7062"/>
							</linearGradient>
                            <circle fill="url(#SVGID_3_)" cx="2359.8" cy="766.7" r="205.9"/>
                            <linearGradient id="SVGID_4_" gradientUnits="userSpaceOnUse" x1="2359.6614" y1="-221.4754"
                                            x2="2359.6614" y2="628.1559">
								<stop offset="0" style="stop-color:#FF928E"/>
                                <stop offset="1" style="stop-color:#FE7062"/>
							</linearGradient>
                            <path fill="url(#SVGID_4_)" d="M2565.4,751.9h-205.5h-205.9c0,0-16.4,116.1,167.4,429.2c8,13.7,22.7,22.7,38.5,22.8
								c15.8,0,30.5-9.4,38.5-23.1C2582.1,867.7,2565.4,751.9,2565.4,751.9z"/>
						</g>
                        <g>
							<linearGradient id="SVGID_5_" gradientUnits="userSpaceOnUse" x1="2716.2676" y1="88.6834"
                                            x2="2562.3972" y2="393.0795">
								<stop offset="0" style="stop-color:#FEBBBA"/>
                                <stop offset="1" style="stop-color:#FF928E"/>
							</linearGradient>
                            <path fill="url(#SVGID_5_)" d="M2364.8,1211.4v2.1h-5c-17.9,0-34.6-10.3-43.7-25.7c-107.4-183-146.8-298.9-160.9-363.6
								c-4-14.9-6.3-29.6-7.1-44.6c-1.2-15.3-0.3-21.8-0.2-22.5l0.5-3.3c8.3-110.6,100.3-196.7,211.2-196.7
								c112.4,0,205.2,87.3,211.5,198.8c0.2,1.5,0.5,5.2,0.3,11.3l0,0.8c0,20.2-2.9,40.3-8.5,59.5
								c-14.6,64.7-51.7,179.2-157.3,359.1C2396.9,1202.1,2378.2,1211.4,2364.8,1211.4z M2159.6,762c0,0,0,9,0.6,15.6l0,0.7
								c0.7,14.2,2.9,28.2,6.7,42.3l0.1,0.4c13.9,63.9,52.8,178.2,159.5,359.9c6.9,11.7,22.1,19,35.8,19l2.5,6v-6
								c3.3,0,25.8-7.3,32.7-19.1c104.9-178.7,144.6-292.3,158-356.1v-0.4c3.3-18.2,5.7-37.2,5.7-56.4l-2.4-0.8v-0.1
								c0-6,0.3-9.2,0.2-10l0.2-0.3c-5.8-105.2-93.4-187.6-199.5-187.6c-105.9,0-193.5,82.1-199.5,188.3l-0.3,4.6H2159.6z"/>
						</g>
                        <circle opacity="0.8" fill="#FFFFFF" cx="2360.5" cy="766" r="118.9"/>
                        <g>
							<linearGradient id="SVGID_6_" gradientUnits="userSpaceOnUse" x1="2360.5029" y1="-221.4762"
                                            x2="2360.5029" y2="628.1565">
								<stop offset="0" style="stop-color:#FEBBBA"/>
                                <stop offset="1" style="stop-color:#FF928E"/>
							</linearGradient>
                            <path fill="url(#SVGID_6_)" d="M2360.5,891.5c-69.2,0-125.5-56.3-125.5-125.5s56.3-125.5,125.5-125.5S2486,696.8,2486,766
								S2429.7,891.5,2360.5,891.5z M2360.5,653.8c-61.9,0-112.2,50.4-112.2,112.2s50.4,112.2,112.2,112.2s112.2-50.4,112.2-112.2
								S2422.4,653.8,2360.5,653.8z"/>
						</g>
					</g>
                    <g>
						<path opacity="0.8" fill="#FFFFFF" d="M2247.7,642.2c-0.6,0-1.1-0.2-1.5-0.7c-0.7-0.8-0.6-2.1,0.2-2.8
							c33.4-28.7,76.1-44.5,120.1-44.5c1.1,0,2,0.9,2,2c0,1.1-0.9,2-2,2c-43.1,0-84.9,15.5-117.6,43.5
							C2248.6,642.1,2248.2,642.2,2247.7,642.2z"/>
					</g>
                    <g>
						<path opacity="0.8" fill="#FFFFFF" d="M2184.1,780.8c-1.1,0-2-0.9-2-2c0-34.4,9.5-68,27.6-97.1c0.6-0.9,1.8-1.2,2.7-0.6
							c0.9,0.6,1.2,1.8,0.6,2.7c-17.7,28.5-27,61.3-27,95C2186.1,779.9,2185.2,780.8,2184.1,780.8z"/>
					</g>
				</g>
                <linearGradient id="SVGID_7_" gradientUnits="userSpaceOnUse" x1="2361.1746" y1="-221.4788"
                                x2="2361.1746" y2="628.1525">
					<stop offset="0" style="stop-color:#FF928E"/>
                    <stop offset="1" style="stop-color:#FE7062"/>
				</linearGradient>
                <path fill="url(#SVGID_7_)" d="M2393.1,1331.2h-63.9c-6.6,0-12-5.4-12-12v-63.9c0-6.6,5.4-12,12-12h63.9c6.6,0,12,5.4,12,12
					v63.9C2405.1,1325.8,2399.7,1331.2,2393.1,1331.2z"/>
			</g>
            <g>
				<g>
					<g>
						<g>
							<linearGradient id="SVGID_8_" gradientUnits="userSpaceOnUse" x1="2845.428" y1="2328.9397"
                                            x2="2771.8376" y2="2676.8206">
								<stop offset="0" style="stop-color:#4F52FF"/>
                                <stop offset="1" style="stop-color:#4042E2"/>
							</linearGradient>
                            <circle fill="url(#SVGID_8_)" cx="2815" cy="2472.9" r="99.3"/>
                            <linearGradient id="SVGID_9_" gradientUnits="userSpaceOnUse" x1="2845.2817" y1="2328.9084"
                                            x2="2771.6914" y2="2676.7893">
								<stop offset="0" style="stop-color:#4F52FF"/>
                                <stop offset="1" style="stop-color:#4042E2"/>
							</linearGradient>
                            <path fill="url(#SVGID_9_)" d="M2914.1,2464.6H2815h-99.3c0,0-7.9,56.6,80.7,207.6c3.9,6.6,10.9,11.3,18.6,11.3
								c7.6,0,14.7-5,18.6-11.6C2922.1,2520.9,2914.1,2464.6,2914.1,2464.6z"/>
						</g>
                        <g>
							<path fill="#91B3FA" d="M2816.3,2687.4v1.3h-1.4c-8.6,0-16.7-5.1-21-12.5c-51.8-88.2-70.8-144.2-77.6-175.4
								c-1.9-7.2-3.1-14.3-3.4-21.5c-0.6-7.4-0.1-10.5-0.1-10.9l0.3-1.6c4-53.3,48.4-94.8,101.9-94.8c54.2,0,99,42.1,102,95.8
								c0.1,0.7,0.2,2.5,0.2,5.5l0,0.4c0,9.8-1.4,19.4-4.1,28.7c-7,31.2-25.4,86.4-76.3,173.2
								C2832.3,2682.9,2826.4,2687.4,2816.3,2687.4z M2718.4,2471.3c0,0,0,4,0.3,7.2l0,0.2c0.3,6.8,1.4,13.5,3.2,20.3l0,0.2
								c6.7,30.8,25.5,85.9,76.9,173.5c3.3,5.6,10.2,9.2,16.8,9.2l0.7,2.9v-2.9c3.3,0,13.3-3.5,16.6-9.2
								c50.6-86.2,70.3-140.9,77-171.7v-0.2c3.3-8.8,3.6-17.9,3.6-27.2l-0.3-0.4v0c0-2.9-1.1-4.4-1.1-4.8l-0.5-0.2
								c-2.8-50.7-45.3-90.5-96.5-90.5c-51,0-93.4,39.9-96.4,91.1l-0.3,2.5H2718.4z"/>
						</g>
                        <circle opacity="0.8" fill="#FFFFFF" cx="2815.3" cy="2472.6" r="57.3"/>
                        <g>
							<path fill="#91B3FA" d="M2815.3,2533.1c-33.4,0-60.5-27.2-60.5-60.5s27.2-60.5,60.5-60.5s60.5,27.2,60.5,60.5
								S2848.7,2533.1,2815.3,2533.1z M2815.3,2418.5c-29.8,0-54.1,24.3-54.1,54.1s24.3,54.1,54.1,54.1s54.1-24.3,54.1-54.1
								S2845.1,2418.5,2815.3,2418.5z"/>
						</g>
					</g>
                    <g>
						<path fill="#BDD0FB" d="M2760.9,2412.9c-0.3,0-0.5-0.1-0.7-0.3c-0.3-0.4-0.3-1,0.1-1.4c16.1-13.8,36.7-21.4,57.9-21.4
							c0.5,0,1,0.4,1,1c0,0.5-0.4,1-1,1c-20.8,0-40.9,7.5-56.7,21C2761.4,2412.9,2761.1,2412.9,2760.9,2412.9z"/>
					</g>
                    <g>
						<path fill="#BDD0FB" d="M2730.2,2479.7c-0.5,0-1-0.4-1-1c0-16.6,4.6-32.8,13.3-46.8c0.3-0.5,0.9-0.6,1.3-0.3
							c0.5,0.3,0.6,0.9,0.3,1.3c-8.5,13.7-13,29.6-13,45.8C2731.2,2479.3,2730.7,2479.7,2730.2,2479.7z"/>
					</g>
				</g>
                <linearGradient id="SVGID_10_" gradientUnits="userSpaceOnUse" x1="2794.4189" y1="2723.9451"
                                x2="2836.8054" y2="2723.9451">
					<stop offset="0" style="stop-color:#4F52FF"/>
                    <stop offset="1" style="stop-color:#4042E2"/>
				</linearGradient>
                <path fill="url(#SVGID_10_)" d="M2830.5,2745.1h-29.7c-3.5,0-6.3-2.9-6.3-6.3v-29.7c0-3.5,2.9-6.3,6.3-6.3h29.7
					c3.5,0,6.3,2.9,6.3,6.3v29.7C2836.8,2742.3,2834,2745.1,2830.5,2745.1z"/>
			</g>
            <g>
				<g>
					<g>
						<g>
							<linearGradient id="SVGID_11_" gradientUnits="userSpaceOnUse" x1="1120.2834" y1="665.6584"
                                            x2="1531.7206" y2="270.9459">
								<stop offset="0" style="stop-color:#4F52FF"/>
                                <stop offset="1" style="stop-color:#4042E2"/>
							</linearGradient>
                            <circle fill="url(#SVGID_11_)" cx="906.1" cy="871.2" r="179.9"/>
                            <linearGradient id="SVGID_12_" gradientUnits="userSpaceOnUse" x1="1173.2051" y1="720.8244"
                                            x2="1584.6421" y2="326.112">
								<stop offset="0" style="stop-color:#4F52FF"/>
                                <stop offset="1" style="stop-color:#4042E2"/>
							</linearGradient>
                            <path fill="url(#SVGID_12_)" d="M1085.6,859H906.1H726.2c0,0-14.3,101.1,146.2,374.6c7,11.9,19.8,19.7,33.6,19.7
								c13.8,0,26.7-8,33.7-19.9C1100.3,959.9,1085.6,859,1085.6,859z"/>
						</g>
                        <g>
							<path fill="#BDD0FB" d="M909.7,1259.8v0.6H906c-15.7,0-30.3-8.4-38.1-21.8C774,1078.7,739.7,977.7,727.3,921.1
								c-3.5-13-5.5-25.7-6.2-38.8c-1.1-13.4-0.3-19-0.2-19.6l0.5-2.9c7.2-96.6,87.7-171.8,184.6-171.8
								c98.2,0,179.3,76.3,184.8,173.7c0.1,1.3,0.4,4.5,0.3,9.9l0,0.7c0,17.7-2.5,35.2-7.4,52c-12.7,56.5-45.5,156.6-137.7,313.8
								C938.1,1251.6,923.1,1259.8,909.7,1259.8z M731.1,865.7c0,0,0,8.5,0.5,14.3l0,1c0.6,12.4,2.5,24.8,5.9,37.2l0.1,0.5
								c12.1,55.8,46.2,155.7,139.4,314.5c6,10.2,19,16.6,31,16.6l1.8,5.3v-5.2c6.7,0,22.9-6.4,28.9-16.7
								c91.7-156.2,125-255.4,138.3-311.2v-0.3c3.3-15.9,5.2-32.5,5.2-49.2l-1.9-0.7v-0.1c0-5.2,0.1-8,0-8.8l0.1-0.3
								c-5.1-91.9-81.7-164-174.3-164c-92.5,0-169.1,71.1-174.4,163.8l-0.3,3.3H731.1z"/>
						</g>
                        <linearGradient id="SVGID_13_" gradientUnits="userSpaceOnUse" x1="802.7681" y1="870.586"
                                        x2="1010.5285" y2="870.586">
							<stop offset="0" style="stop-color:#DAE3FE"/>
                            <stop offset="1" style="stop-color:#E9EFFD"/>
						</linearGradient>
                        <circle fill="url(#SVGID_13_)" cx="906.6" cy="870.6" r="103.9"/>
                        <g>
							<path fill="#7D97F4" d="M906.6,980.3c-60.5,0-109.7-49.2-109.7-109.7s49.2-109.7,109.7-109.7s109.7,49.2,109.7,109.7
								S967.1,980.3,906.6,980.3z M906.6,772.5c-54.1,0-98.1,44-98.1,98.1s44,98.1,98.1,98.1c54.1,0,98.1-44,98.1-98.1
								S960.7,772.5,906.6,772.5z"/>
						</g>
					</g>
                    <g>
						<path fill="#BDD0FB" d="M808.1,762.4c-0.5,0-1-0.2-1.3-0.6c-0.6-0.7-0.5-1.8,0.2-2.5c29.2-25.1,66.5-38.9,105-38.9
							c1,0,1.7,0.8,1.7,1.7c0,1-0.8,1.7-1.7,1.7c-37.7,0-74.2,13.5-102.7,38C808.9,762.3,808.5,762.4,808.1,762.4z"/>
					</g>
                    <g>
						<path fill="#BDD0FB" d="M752.5,883.5c-1,0-1.7-0.8-1.7-1.7c0-30.1,8.3-59.4,24.1-84.9c0.5-0.8,1.6-1.1,2.4-0.6
							c0.8,0.5,1.1,1.6,0.6,2.4c-15.4,24.9-23.6,53.6-23.6,83C754.2,882.7,753.4,883.5,752.5,883.5z"/>
					</g>
				</g>
                <linearGradient id="SVGID_14_" gradientUnits="userSpaceOnUse" x1="868.83" y1="1326.0372" x2="945.6404"
                                y2="1326.0372">
					<stop offset="0" style="stop-color:#4F52FF"/>
                    <stop offset="1" style="stop-color:#4042E2"/>
				</linearGradient>
                <path fill="url(#SVGID_14_)" d="M934.2,1364.4h-53.8c-6.3,0-11.5-5.2-11.5-11.5v-53.8c0-6.3,5.2-11.5,11.5-11.5h53.8
					c6.3,0,11.5,5.2,11.5,11.5v53.8C945.6,1359.3,940.5,1364.4,934.2,1364.4z"/>
			</g>
		</g>
        <g>
			<g>
				<g>
					<path fill="#BDD0FB" d="M874.7,2220.4c10-34.9,15.4-70.6,11.7-107.9c-9.3-93.9-77.7-170.1-130.9-243.2
						c-48.9-67.2-94.5-172,30-183.1c99.2-8.9,230.8,69.1,261.2,168.5c36,117.7,3.2,279.5,91.3,377
						c123.2,136.4,187.3,89.5,231.2,347.6c18.7,110.3-32,181.5-96.3,226.9c-101.4,71.7-236.8,72.7-339.2,2.5
						c-90.5-62-155.1-162.3-158-273.5C772.8,2422.8,844.7,2325.1,874.7,2220.4z"/>
                    <path fill="#7D97F4" d="M1097.3,3037.9c-0.1,0-0.3,0-0.4,0c-2.8-0.2-4.8-2.6-4.6-5.4c44.1-571-42.8-891.9-123.4-1060.6
						c-87.2-182.3-186-230.6-187-231c-2.5-1.2-3.6-4.2-2.4-6.7c1.2-2.5,4.1-3.6,6.7-2.4c4.1,1.9,102.4,49.6,191.1,234.5
						c51.9,108.1,89.6,241.1,112.1,395.1c28.1,192.3,32.4,418.3,12.8,671.8C1102.1,3035.9,1099.9,3037.9,1097.3,3037.9z"/>
				</g>
                <path fill="#BDD0FB" d="M730.9,1964.9c4.5-2.1,9.6-3.4,15.3-3.7c31.2-1.7,49.3,28.5,62.6,52.2c11.4,20.3,24.9,45,24.3,69.2
					c-0.6,26.2-24,51.4-47.9,29c-27.1-25.4-68-64.7-74.8-103.3C707,1989,715.3,1972.2,730.9,1964.9z"/>
			</g>
            <g>
				<path fill="#91B3FA" d="M529.7,2611.2c-26.5-80.4-12.7-180.2-12.5-269.9c0.1-47.5-4.1-93.9-19.4-139.1
					c-15.2-44.9-45.4-91.2-33.2-140.7c24.6-99.6,127.6-73.7,194.4-13.2c77.5,70.2,117.4,199.6,159,297.4
					c25,59,57.7,118.3,76.1,179.6c30.4,101.6,19.2,177.6-22.2,234.6c-39.7,54.7-110.5,76.7-174.2,54.2
					C640.1,2793.8,572.6,2740.9,529.7,2611.2z"/>
                <path fill="#7D97F4" d="M813.6,2958.5c-2.8,0-5-2.2-5-5c0-1.3-0.6-130.1-29.4-303.2c-26.6-159.6-83.5-390.5-203.1-584.4
					c-1.5-2.4-0.7-5.4,1.6-6.9c2.4-1.5,5.4-0.7,6.9,1.6c120.5,195.3,177.7,427.7,204.5,588.2c29,173.8,29.5,303.3,29.5,304.6
					C818.6,2956.3,816.4,2958.5,813.6,2958.5L813.6,2958.5z"/>
			</g>
		</g>
        <g>
			
				<linearGradient id="SVGID_15_" gradientUnits="userSpaceOnUse" x1="1646.6688" y1="2793.6123"
                                x2="1725.0004" y2="2734.8638"
                                gradientTransform="matrix(0.9976 -6.980000e-002 6.980000e-002 0.9976 -146.2738 -136.7435)">
				<stop offset="0" style="stop-color:#FEBBBA"/>
                    <stop offset="1" style="stop-color:#FF928E"/>
			</linearGradient>
            <path fill="url(#SVGID_15_)" d="M1836.7,2014.6c-60.2-0.5-75,86.4-56.9,118.2c18.2,31.9,51.2,206.2,80.2,216.5
				c28.9,10.2,256,151.4,257.3,152.6c1.3,1.1-18.3,36.9,2.8,40.3c21.1,3.4,58.8-1.7,53.8-19.7c-4.9-18.1,4-31-10.4-43.4
				c-14.4-12.5-238.8-187.1-238.8-187.1S1915.3,2015.3,1836.7,2014.6z"/>
            <linearGradient id="SVGID_16_" gradientUnits="userSpaceOnUse" x1="1783.7396" y1="3036.1033" x2="1900.9762"
                            y2="3205.4446">
				<stop offset="0" style="stop-color:#09005D"/>
                <stop offset="1" style="stop-color:#1A0F91"/>
			</linearGradient>
            <path fill="url(#SVGID_16_)" d="M1786.6,2963.2l-143.9-108.8c-4.6-3.4-11-2.8-14.7,1.5l-7.1,8.2c-2,2.3-3,5.3-2.7,8.4
				c0.3,3.1,1.9,5.8,4.3,7.7l146.9,112.2c2.8,2.1,6.4,2.8,9.7,1.8c3.3-1,6-3.5,7.2-6.8l4.1-11.5
				C1792,2971.2,1790.4,2966.1,1786.6,2963.2z"/>
            <g>
				
					<linearGradient id="SVGID_17_" gradientUnits="userSpaceOnUse" x1="1735.0126" y1="3201.0188"
                                    x2="2011.1888" y2="3481.7595"
                                    gradientTransform="matrix(0.998 -6.370000e-002 6.370000e-002 0.998 -136.433 -126.6025)">
					<stop offset="0" style="stop-color:#E1473D"/>
                        <stop offset="1" style="stop-color:#E9605A"/>
				</linearGradient>
                <path fill="url(#SVGID_17_)" d="M1686.2,2847c0,0-46.5,19.1-16.2,45.8c30.3,26.7,105,68.8,119,72.5c14,3.7,57.6-11.7,45.2-26.9
					s-76.9-40.8-76.9-40.8l-27.8-41.7C1729.3,2855.9,1684.6,2852.5,1686.2,2847z"/>

                <linearGradient id="SVGID_18_" gradientUnits="userSpaceOnUse" x1="1791.7045" y1="3310.9114"
                                x2="2162.1113" y2="2933.1699"
                                gradientTransform="matrix(0.9164 -5.850000e-002 5.580000e-002 0.8742 -288.1997 143.0074)">
					<stop offset="0" style="stop-color:#FEBBBA"/>
                    <stop offset="1" style="stop-color:#FF928E"/>
				</linearGradient>
                <path fill="url(#SVGID_18_)" d="M1768.6,2555.3c0,0-50.8,126.1-50.8,158.2c-0.1,32.1-32.1,138.3-32.1,138.3s19.6,27.8,40.3,5.4
					c20.6-22.4,147.7-318,129.6-338.8C1837.3,2497.5,1769.8,2525.5,1768.6,2555.3z"/>

                <linearGradient id="SVGID_19_" gradientUnits="userSpaceOnUse" x1="1575.7592" y1="3046.9189"
                                x2="1198.8112" y2="3323.511"
                                gradientTransform="matrix(0.9816 -0.1911 0.1911 0.9816 -428.744 -356.919)">
					<stop offset="0" style="stop-color:#09005D"/>
                    <stop offset="1" style="stop-color:#1A0F91"/>
				</linearGradient>
                <path fill="url(#SVGID_19_)" d="M1408.4,2261.9c0,0-58.3,129.7,57.1,150.5c115.4,20.8,302.2,168.9,302.2,168.9l114.9-58.9
					c0,0-200.1-235.4-273.1-237.8C1499.2,2299.2,1444.5,2274.5,1408.4,2261.9z"/>
			</g>
            <g>
				<path fill="#FFFFFF" d="M2169.7,2626.9c-160.4,0-290.4,130-290.4,290.4c0,160.4,130,290.4,290.4,290.4s290.4-130,290.4-290.4
					C2460.1,2756.9,2330.1,2626.9,2169.7,2626.9z M2169.7,3164.3c-136.4,0-247-110.6-247-247c0-136.4,110.6-247,247-247
					s247,110.6,247,247C2416.7,3053.7,2306.1,3164.3,2169.7,3164.3z"/>
                <g>
					<linearGradient id="SVGID_20_" gradientUnits="userSpaceOnUse" x1="2268.9551" y1="2507.8521"
                                    x2="1849.4717" y2="4320.6187">
						<stop offset="0" style="stop-color:#09005D"/>
                        <stop offset="1" style="stop-color:#1A0F91"/>
					</linearGradient>
                    <path fill="url(#SVGID_20_)" d="M2172,2621.7c-168.5,0-305.2,136.6-305.2,305.2c0,168.5,136.6,305.2,305.2,305.2
						c168.5,0,305.2-136.6,305.2-305.2C2477.2,2758.3,2340.5,2621.7,2172,2621.7z M2168.7,3186.3c-145.1,0-262.7-117.6-262.7-262.7
						s117.6-262.7,262.7-262.7s262.7,117.6,262.7,262.7S2313.8,3186.3,2168.7,3186.3z"/>
                    <g>
						<g>
							<path fill="#91B3FA" d="M2427.5,2824.8c-2,0-3.9-1.3-4.4-3.4c-2.7-10.2-6.2-20.4-10.3-30.1c-1-2.3,0.1-5,2.4-6
								c2.3-1,5,0.1,6,2.4c4.3,10.2,7.9,20.7,10.7,31.3c0.6,2.4-0.8,4.9-3.2,5.6C2428.3,2824.8,2427.9,2824.8,2427.5,2824.8z"/>
						</g>
                        <g>
							<path fill="#91B3FA" d="M2387.8,2743.6c-1.4,0-2.7-0.6-3.6-1.8c-47-62.3-122.6-99.4-202.4-99.4c-34,0-66.9,6.9-97.8,20.5
								c-2.3,1-5,0-6-2.3c-1-2.3,0-5,2.3-6c32.1-14.1,66.2-21.3,101.5-21.3c82.6,0,161,38.5,209.7,103.1c1.5,2,1.1,4.9-0.9,6.4
								C2389.7,2743.3,2388.7,2743.6,2387.8,2743.6z"/>
						</g>
					</g>
				</g>
                <linearGradient id="SVGID_21_" gradientUnits="userSpaceOnUse" x1="2169.3142" y1="2965.8662"
                                x2="2207.147" y2="2927.2842">
					<stop offset="0" style="stop-color:#09005D"/>
                    <stop offset="1" style="stop-color:#1A0F91"/>
				</linearGradient>
                <circle fill="url(#SVGID_21_)" cx="2188.2" cy="2946.6" r="27"/>

                <linearGradient id="SVGID_22_" gradientUnits="userSpaceOnUse" x1="1596.968" y1="-350.8659"
                                x2="1605.9457" y2="-350.8659"
                                gradientTransform="matrix(0.7185 0.6956 -0.6956 0.7185 887.4882 1982.3702)">
					<stop offset="0" style="stop-color:#09005D"/>
                    <stop offset="1" style="stop-color:#1A0F91"/>
				</linearGradient>
                <path fill="url(#SVGID_22_)" d="M2354.1,2776.4c1.7-1.8,1.7-4.6-0.1-6.3l0,0c-1.8-1.7-4.6-1.7-6.3,0.1l-137.3,141.9
					c-1.7,1.8-1.7,4.6,0.1,6.3l0,0c1.8,1.7,4.6,1.7,6.3-0.1L2354.1,2776.4z"/>

                <linearGradient id="SVGID_23_" gradientUnits="userSpaceOnUse" x1="1592.5635" y1="-228.396"
                                x2="1601.5385" y2="-228.396"
                                gradientTransform="matrix(0.7185 0.6956 -0.6521 0.6736 795.2548 2077.8574)">
					<stop offset="0" style="stop-color:#09005D"/>
                    <stop offset="1" style="stop-color:#1A0F91"/>
				</linearGradient>
                <path fill="url(#SVGID_23_)" d="M2159.3,2971.5c1.6-1.7,1.5-4.4-0.3-6.1l0,0c-1.8-1.7-4.5-1.8-6.1-0.1l-128.7,133
					c-1.6,1.7-1.5,4.4,0.3,6.1l0,0c1.8,1.7,4.5,1.8,6.1,0.1L2159.3,2971.5z"/>

                <linearGradient id="SVGID_24_" gradientUnits="userSpaceOnUse" x1="-2289.7017" y1="-2023.213"
                                x2="-2280.7205" y2="-2023.213"
                                gradientTransform="matrix(-0.2613 0.9652 -0.9652 -0.2613 -512.5188 4589.8066)">
					<stop offset="0" style="stop-color:#09005D"/>
                    <stop offset="1" style="stop-color:#1A0F91"/>
				</linearGradient>
                <path fill="url(#SVGID_24_)" d="M2131.5,2942.9c2.4,0.6,4.9-0.8,5.5-3.2l0,0c0.6-2.4-0.8-4.9-3.2-5.5l-190.6-51.6
					c-2.4-0.6-4.9,0.8-5.5,3.2l0,0c-0.6,2.4,0.8,4.9,3.2,5.5L2131.5,2942.9z"/>

                <linearGradient id="SVGID_25_" gradientUnits="userSpaceOnUse" x1="-2287.4995" y1="-2299.5422"
                                x2="-2280.1055" y2="-2299.5422"
                                gradientTransform="matrix(-0.2613 0.9652 -0.9652 -0.2613 -512.5188 4589.8066)">
					<stop offset="0" style="stop-color:#09005D"/>
                    <stop offset="1" style="stop-color:#1A0F91"/>
				</linearGradient>
                <path fill="url(#SVGID_25_)" d="M2381.2,3011.2c2,0.5,4-0.6,4.5-2.6l0,0c0.5-2-0.6-4-2.6-4.5l-156.9-42.5c-2-0.5-4,0.6-4.5,2.6
					l0,0c-0.5,2,0.6,4,2.6,4.5L2381.2,3011.2z"/>

                <linearGradient id="SVGID_26_" gradientUnits="userSpaceOnUse" x1="-4981.1494" y1="-879.4697"
                                x2="-4973.7593" y2="-879.4697"
                                gradientTransform="matrix(-0.8176 0.5757 -0.5757 -0.8176 -2458.157 4976.1543)">
					<stop offset="0" style="stop-color:#09005D"/>
                    <stop offset="1" style="stop-color:#1A0F91"/>
				</linearGradient>
                <path fill="url(#SVGID_26_)" d="M2161.5,2898.3c1.2,1.7,3.5,2.1,5.1,0.9l0,0c1.7-1.2,2.1-3.5,0.9-5.1l-93.6-132.9
					c-1.2-1.7-3.5-2.1-5.1-0.9l0,0c-1.7,1.2-2.1,3.5-0.9,5.1L2161.5,2898.3z"/>

                <linearGradient id="SVGID_27_" gradientUnits="userSpaceOnUse" x1="-4969.2124" y1="-1134.532"
                                x2="-4961.8218" y2="-1134.532"
                                gradientTransform="matrix(-0.8176 0.5757 -0.5757 -0.8176 -2458.157 4976.1543)">
					<stop offset="0" style="stop-color:#09005D"/>
                    <stop offset="1" style="stop-color:#1A0F91"/>
				</linearGradient>
                <path fill="url(#SVGID_27_)" d="M2298.6,3113.7c1.2,1.7,3.5,2.1,5.1,0.9l0,0c1.7-1.2,2.1-3.5,0.9-5.1l-93.6-132.9
					c-1.2-1.7-3.5-2.1-5.1-0.9l0,0c-1.7,1.2-2.1,3.5-0.9,5.1L2298.6,3113.7z"/>

                <linearGradient id="SVGID_28_" gradientUnits="userSpaceOnUse" x1="-3896.3105" y1="5801.6689"
                                x2="-3888.9211" y2="5801.6689"
                                gradientTransform="matrix(-0.2544 -0.9671 0.9671 -0.2544 -4561.687 697.7464)">
					<stop offset="0" style="stop-color:#09005D"/>
                    <stop offset="1" style="stop-color:#1A0F91"/>
				</linearGradient>
                <path fill="url(#SVGID_28_)" d="M1959.9,3003.5c-2,0.5-3.2,2.5-2.6,4.5l0,0c0.5,2,2.5,3.2,4.5,2.6l157.2-41.4
					c2-0.5,3.2-2.5,2.6-4.5l0,0c-0.5-2-2.5-3.2-4.5-2.6L1959.9,3003.5z"/>

                <linearGradient id="SVGID_29_" gradientUnits="userSpaceOnUse" x1="-3890.3025" y1="6086.7358"
                                x2="-3882.9133" y2="6086.7358"
                                gradientTransform="matrix(-0.2544 -0.9671 0.9671 -0.2544 -4561.687 697.7464)">
					<stop offset="0" style="stop-color:#09005D"/>
                    <stop offset="1" style="stop-color:#1A0F91"/>
				</linearGradient>
                <path fill="url(#SVGID_29_)" d="M2234,2925.1c-2,0.5-3.2,2.5-2.6,4.5l0,0c0.5,2,2.5,3.2,4.5,2.6l157.2-41.3
					c2-0.5,3.2-2.5,2.6-4.5l0,0c-0.5-2-2.5-3.2-4.5-2.6L2234,2925.1z"/>

                <linearGradient id="SVGID_30_" gradientUnits="userSpaceOnUse" x1="-6183.6943" y1="1049.9325"
                                x2="-6176.2988" y2="1049.9325"
                                gradientTransform="matrix(-0.9998 1.920000e-002 -1.920000e-002 -0.9998 -3962.5505 4233.0601)">
					<stop offset="0" style="stop-color:#09005D"/>
                    <stop offset="1" style="stop-color:#1A0F91"/>
				</linearGradient>
                <path fill="url(#SVGID_30_)" d="M2193.9,3146c0,2,1.7,3.7,3.8,3.6l0,0c2,0,3.7-1.7,3.6-3.8l-3.1-162.5c0-2-1.7-3.7-3.8-3.6l0,0
					c-2,0-3.7,1.7-3.6,3.8L2193.9,3146z"/>

                <linearGradient id="SVGID_31_" gradientUnits="userSpaceOnUse" x1="-6188.9585" y1="1324.0457"
                                x2="-6181.563" y2="1324.0457"
                                gradientTransform="matrix(-0.9998 1.920000e-002 -1.920000e-002 -0.9998 -3962.5505 4233.0601)">
					<stop offset="0" style="stop-color:#09005D"/>
                    <stop offset="1" style="stop-color:#1A0F91"/>
				</linearGradient>
                <path fill="url(#SVGID_31_)" d="M2193.9,2871.8c0,2,1.7,3.7,3.8,3.6l0,0c2,0,3.7-1.7,3.6-3.8l-3.1-162.5c0-2-1.7-3.7-3.8-3.6
					l0,0c-2,0-3.7,1.7-3.6,3.8L2193.9,2871.8z"/>
			</g>
            <g>
				<path fill="#FFFFFF" d="M1281,2631.5c-161.3,0-292,130.7-292,292c0,161.3,130.7,292,292,292s292-130.7,292-292
					C1573,2762.2,1442.3,2631.5,1281,2631.5z M1281,3171.9c-137.2,0-248.4-111.2-248.4-248.4s111.2-248.4,248.4-248.4
					s248.4,111.2,248.4,248.4S1418.2,3171.9,1281,3171.9z"/>
                <g>
					<linearGradient id="SVGID_32_" gradientUnits="userSpaceOnUse" x1="1377.9366" y1="2507.8521"
                                    x2="958.4532" y2="4320.6191">
						<stop offset="0" style="stop-color:#09005D"/>
                        <stop offset="1" style="stop-color:#1A0F91"/>
					</linearGradient>
                    <path fill="url(#SVGID_32_)" d="M1281,2621.7c-168.5,0-305.2,136.6-305.2,305.2c0,168.5,136.6,305.2,305.2,305.2
						c168.5,0,305.2-136.6,305.2-305.2C1586.2,2758.3,1449.5,2621.7,1281,2621.7z M1277.7,3186.3c-145.1,0-262.7-117.6-262.7-262.7
						s117.6-262.7,262.7-262.7s262.7,117.6,262.7,262.7S1422.8,3186.3,1277.7,3186.3z"/>
                    <g>
						<g>
							<path fill="#91B3FA" d="M1548.4,2832.5c-2.2,0-4.1-1.4-4.7-3.6c-2.9-11-6.7-21.9-11.1-32.4c-1.1-2.5,0.1-5.4,2.6-6.4
								c2.5-1,5.4,0.1,6.4,2.6c4.6,10.9,8.5,22.3,11.6,33.7c0.7,2.6-0.9,5.3-3.5,6C1549.3,2832.5,1548.8,2832.5,1548.4,2832.5z"/>
						</g>
                        <g>
							<path fill="#91B3FA" d="M1505.7,2745.1c-1.5,0-3-0.7-3.9-2c-50.5-67-132-107-217.8-107c-36.6,0-72,7.4-105.3,22.1
								c-2.5,1.1-5.4,0-6.5-2.5c-1.1-2.5,0-5.4,2.5-6.5c34.5-15.2,71.3-22.9,109.2-22.9c88.9,0,173.3,41.5,225.7,110.9
								c1.6,2.2,1.2,5.2-1,6.9C1507.7,2744.8,1506.7,2745.1,1505.7,2745.1z"/>
						</g>
					</g>
				</g>
                <linearGradient id="SVGID_33_" gradientUnits="userSpaceOnUse" x1="1278.2958" y1="2965.866"
                                x2="1316.1285" y2="2927.2842">
					<stop offset="0" style="stop-color:#09005D"/>
                    <stop offset="1" style="stop-color:#1A0F91"/>
				</linearGradient>
                <circle fill="url(#SVGID_33_)" cx="1297.2" cy="2946.6" r="27"/>

                <linearGradient id="SVGID_34_" gradientUnits="userSpaceOnUse" x1="956.8362" y1="268.8635" x2="965.8138"
                                y2="268.8635"
                                gradientTransform="matrix(0.7185 0.6956 -0.6956 0.7185 887.4882 1982.3702)">
					<stop offset="0" style="stop-color:#09005D"/>
                    <stop offset="1" style="stop-color:#1A0F91"/>
				</linearGradient>
                <path fill="url(#SVGID_34_)" d="M1463.1,2776.4c1.7-1.8,1.7-4.6-0.1-6.3l0,0c-1.8-1.7-4.6-1.7-6.3,0.1l-137.3,141.9
					c-1.7,1.8-1.7,4.6,0.1,6.3l0,0c1.8,1.7,4.6,1.7,6.3-0.1L1463.1,2776.4z"/>

                <linearGradient id="SVGID_35_" gradientUnits="userSpaceOnUse" x1="952.4171" y1="432.6578" x2="961.3922"
                                y2="432.6578"
                                gradientTransform="matrix(0.7185 0.6956 -0.6521 0.6736 795.2548 2077.8574)">
					<stop offset="0" style="stop-color:#09005D"/>
                    <stop offset="1" style="stop-color:#1A0F91"/>
				</linearGradient>
                <path fill="url(#SVGID_35_)" d="M1268.3,2971.5c1.6-1.7,1.5-4.4-0.3-6.1l0,0c-1.8-1.7-4.5-1.8-6.1-0.1l-128.7,133
					c-1.6,1.7-1.5,4.4,0.3,6.1l0,0c1.8,1.7,4.5,1.8,6.2,0.1L1268.3,2971.5z"/>

                <linearGradient id="SVGID_36_" gradientUnits="userSpaceOnUse" x1="-2056.8528" y1="-1163.1064"
                                x2="-2047.8715" y2="-1163.1064"
                                gradientTransform="matrix(-0.2613 0.9652 -0.9652 -0.2613 -512.5188 4589.8066)">
					<stop offset="0" style="stop-color:#09005D"/>
                    <stop offset="1" style="stop-color:#1A0F91"/>
				</linearGradient>
                <path fill="url(#SVGID_36_)" d="M1240.5,2942.9c2.4,0.6,4.9-0.8,5.5-3.2l0,0c0.6-2.4-0.8-4.9-3.2-5.5l-190.6-51.6
					c-2.4-0.6-4.9,0.8-5.5,3.2l0,0c-0.6,2.4,0.8,4.9,3.2,5.5L1240.5,2942.9z"/>

                <linearGradient id="SVGID_37_" gradientUnits="userSpaceOnUse" x1="-2054.6504" y1="-1439.4355"
                                x2="-2047.2565" y2="-1439.4355"
                                gradientTransform="matrix(-0.2613 0.9652 -0.9652 -0.2613 -512.5188 4589.8066)">
					<stop offset="0" style="stop-color:#09005D"/>
                    <stop offset="1" style="stop-color:#1A0F91"/>
				</linearGradient>
                <path fill="url(#SVGID_37_)" d="M1490.2,3011.2c2,0.5,4-0.6,4.5-2.6l0,0c0.5-2-0.6-4-2.6-4.5l-156.9-42.5c-2-0.5-4,0.6-4.5,2.6
					l0,0c-0.5,2,0.6,4,2.6,4.5L1490.2,3011.2z"/>

                <linearGradient id="SVGID_38_" gradientUnits="userSpaceOnUse" x1="-4252.5801" y1="-366.4593"
                                x2="-4245.1899" y2="-366.4593"
                                gradientTransform="matrix(-0.8176 0.5757 -0.5757 -0.8176 -2458.157 4976.1543)">
					<stop offset="0" style="stop-color:#09005D"/>
                    <stop offset="1" style="stop-color:#1A0F91"/>
				</linearGradient>
                <path fill="url(#SVGID_38_)" d="M1270.5,2898.3c1.2,1.7,3.5,2.1,5.1,0.9l0,0c1.7-1.2,2.1-3.5,0.9-5.1l-93.6-132.9
					c-1.2-1.7-3.5-2.1-5.1-0.9l0,0c-1.7,1.2-2.1,3.5-0.9,5.1L1270.5,2898.3z"/>

                <linearGradient id="SVGID_39_" gradientUnits="userSpaceOnUse" x1="-4240.6431" y1="-621.5215"
                                x2="-4233.2529" y2="-621.5215"
                                gradientTransform="matrix(-0.8176 0.5757 -0.5757 -0.8176 -2458.157 4976.1543)">
					<stop offset="0" style="stop-color:#09005D"/>
                    <stop offset="1" style="stop-color:#1A0F91"/>
				</linearGradient>
                <path fill="url(#SVGID_39_)" d="M1407.6,3113.7c1.2,1.7,3.5,2.1,5.1,0.9l0,0c1.7-1.2,2.1-3.5,0.9-5.1l-93.6-132.9
					c-1.2-1.7-3.5-2.1-5.1-0.9l0,0c-1.7,1.2-2.1,3.5-0.9,5.1L1407.6,3113.7z"/>

                <linearGradient id="SVGID_40_" gradientUnits="userSpaceOnUse" x1="-3669.636" y1="4939.9668"
                                x2="-3662.2466" y2="4939.9668"
                                gradientTransform="matrix(-0.2544 -0.9671 0.9671 -0.2544 -4561.687 697.7464)">
					<stop offset="0" style="stop-color:#09005D"/>
                    <stop offset="1" style="stop-color:#1A0F91"/>
				</linearGradient>
                <path fill="url(#SVGID_40_)" d="M1068.8,3003.5c-2,0.5-3.2,2.5-2.6,4.5l0,0c0.5,2,2.5,3.2,4.5,2.6l157.2-41.4
					c2-0.5,3.2-2.5,2.6-4.5l0,0c-0.5-2-2.5-3.2-4.5-2.6L1068.8,3003.5z"/>

                <linearGradient id="SVGID_41_" gradientUnits="userSpaceOnUse" x1="-3663.6279" y1="5225.0332"
                                x2="-3656.2385" y2="5225.0332"
                                gradientTransform="matrix(-0.2544 -0.9671 0.9671 -0.2544 -4561.687 697.7464)">
					<stop offset="0" style="stop-color:#09005D"/>
                    <stop offset="1" style="stop-color:#1A0F91"/>
				</linearGradient>
                <path fill="url(#SVGID_41_)" d="M1343,2925.1c-2,0.5-3.2,2.5-2.6,4.5l0,0c0.5,2,2.5,3.2,4.5,2.6l157.2-41.3
					c2-0.5,3.2-2.5,2.6-4.5l0,0c-0.5-2-2.5-3.2-4.5-2.6L1343,2925.1z"/>

                <linearGradient id="SVGID_42_" gradientUnits="userSpaceOnUse" x1="-5292.8262" y1="1067.0405"
                                x2="-5285.4312" y2="1067.0405"
                                gradientTransform="matrix(-0.9998 1.920000e-002 -1.920000e-002 -0.9998 -3962.5505 4233.0601)">
					<stop offset="0" style="stop-color:#09005D"/>
                    <stop offset="1" style="stop-color:#1A0F91"/>
				</linearGradient>
                <path fill="url(#SVGID_42_)" d="M1302.9,3146c0,2,1.7,3.7,3.8,3.6l0,0c2,0,3.7-1.7,3.6-3.8l-3.1-162.5c0-2-1.7-3.7-3.8-3.6l0,0
					c-2,0-3.7,1.7-3.6,3.8L1302.9,3146z"/>

                <linearGradient id="SVGID_43_" gradientUnits="userSpaceOnUse" x1="-5298.0903" y1="1341.1537"
                                x2="-5290.6948" y2="1341.1537"
                                gradientTransform="matrix(-0.9998 1.920000e-002 -1.920000e-002 -0.9998 -3962.5505 4233.0601)">
					<stop offset="0" style="stop-color:#09005D"/>
                    <stop offset="1" style="stop-color:#1A0F91"/>
				</linearGradient>
                <path fill="url(#SVGID_43_)" d="M1302.9,2871.8c0,2,1.7,3.7,3.8,3.6l0,0c2,0,3.7-1.7,3.6-3.8l-3.1-162.5c0-2-1.7-3.7-3.8-3.6
					l0,0c-2,0-3.7,1.7-3.6,3.8L1302.9,2871.8z"/>
			</g>

            <linearGradient id="SVGID_44_" gradientUnits="userSpaceOnUse" x1="1425.4836" y1="-246.6983" x2="1303.152"
                            y2="281.949" gradientTransform="matrix(0.8352 0.55 -0.55 0.8352 718.6108 1343.1689)">
				<stop offset="0" style="stop-color:#FEBBBA"/>
                <stop offset="1" style="stop-color:#FF928E"/>
			</linearGradient>
            <path fill="url(#SVGID_44_)" d="M1958.4,1916l-89.7,111c0,0,13.6,70.9,84.7,68.6l76.8-137.1L1958.4,1916z"/>
            <linearGradient id="SVGID_45_" gradientUnits="userSpaceOnUse" x1="1674.7512" y1="-221.4765" x2="1674.7512"
                            y2="628.1553">
				<stop offset="0" style="stop-color:#FF928E"/>
                <stop offset="1" style="stop-color:#FE7062"/>
			</linearGradient>
            <path fill="url(#SVGID_45_)" d="M1747.7,2204.3c0,0,115,11,155.4-14.7c40.4-25.7,115-146.9-26.9-195.8
				c-142-49-332.5,66.5-405.9,141.6c-73.4,75.1-80,124-80,124s137.1,86.5,181.1,66.9C1615.5,2306.7,1700.5,2202,1747.7,2204.3z"/>
            <linearGradient id="SVGID_46_" gradientUnits="userSpaceOnUse" x1="1844.54" y1="1795.757" x2="1724.1196"
                            y2="3200.6592">
				<stop offset="0" style="stop-color:#FF928E"/>
                <stop offset="1" style="stop-color:#FE7062"/>
			</linearGradient>
            <path fill="url(#SVGID_46_)" d="M2024.3,2509.1c-24.5,0-467.5,63.6-467.5,63.6l-9.8-74.6l-31.8,13.4l7.3,95.5
				c0,0-264.4,332.9-232.5,342.7c31.8,9.8,355.9,75.9,384.8,46.5c28.9-29.4,350.8-384.3,350.8-384.3
				c24.9,48.1,146.5,332.9,146.5,332.9s29.4,44.1,33.5-7.3C2205.5,2937.4,2048.8,2509.1,2024.3,2509.1z M1629,2968.7
				c-2.1,2.2-5.1,3.2-8.1,2.7c-53.4-9.3-248.2-43.2-276.3-44.6c-28.3-1.4,148.1-226,195.7-285.9c2.2-2.7,5.7-4,9-3.2
				c3.4,0.8,6,3.4,6.8,6.7l75.1,316C1632,2963.3,1631.1,2966.5,1629,2968.7z M2001.1,2577.1c-14.7,13.9-310.2,373.6-325.6,361.5
				c-15.4-12.1-107-328.7-96.7-330.5c0,0,418.6-71,422.3-61.2C2004.7,2556.8,2015.7,2563.2,2001.1,2577.1z"/>
            <linearGradient id="SVGID_47_" gradientUnits="userSpaceOnUse" x1="1588.5245" y1="2714.8162" x2="1506.9298"
                            y2="2463.5039">
				<stop offset="0" style="stop-color:#E1473D"/>
                <stop offset="1" style="stop-color:#E9605A"/>
			</linearGradient>
            <path fill="url(#SVGID_47_)" d="M1609.4,2395.2c-19.6-22-238.5-33-246.6-6.1c-8,26.9,20.1,50.6,64.2,52.9
				c44.1,2.2,66.1,4.7,66.1,4.7l9.7,65.8c0.3,2.4,1.7,4.4,3.7,5.8c2,1.3,4.4,1.7,6.7,1.1l38.2-10.2l-9.3-67.1
				C1542.1,2442,1629,2417.3,1609.4,2395.2z"/>
            <linearGradient id="SVGID_48_" gradientUnits="userSpaceOnUse" x1="2025.0935" y1="2528.8044" x2="2208.3181"
                            y2="2341.9514">
				<stop offset="0" style="stop-color:#2C50FF"/>
                <stop offset="0.9964" style="stop-color:#1A1B80"/>
			</linearGradient>
            <path fill="url(#SVGID_48_)" d="M2166.9,2409.3c-47.7-5.5-178.7,23.9-181.8,23.9c-3.1,0-15.9,3.7-9.8,25.1
				c6.1,21.4,16,54.2,16,54.2l39,1.3l-18.3-67.2c0,0,130.5-26.5,148.1,0c16.2,24.3-21,67.9-45.2,86.2c-3.6,2.7-4.9,7.5-3.1,11.7
				c2,4.7,3.7,8.6,5.1,11.8c1.4,3.1,4.2,5.3,7.5,5.8c3.3,0.5,6.7-0.7,8.9-3.3c12.3-14.2,32.6-37.3,38.7-43.1
				C2181,2507.2,2214.6,2414.8,2166.9,2409.3z"/>
            <linearGradient id="SVGID_49_" gradientUnits="userSpaceOnUse" x1="2075.7703" y1="2264.0894" x2="2483.8613"
                            y2="2095.1667">
				<stop offset="0" style="stop-color:#FEBBBA"/>
                <stop offset="1" style="stop-color:#FF928E"/>
			</linearGradient>
            <path fill="url(#SVGID_49_)" d="M1904.5,2005.9c-60-4.7-80.9,80.9-65,114c15.9,33,36.7,209.3,64.9,221.5
				c28.2,12.2,244.8,168.9,246,170.1c1.2,1.2-20.8,35.5,0,40.4s58.7,2.4,55.1-15.9c-3.7-18.4,6.1-30.6-7.3-44.1
				s-225.2-203.3-225.2-203.3S1982.8,2012,1904.5,2005.9z"/>
            <linearGradient id="SVGID_50_" gradientUnits="userSpaceOnUse" x1="2178.5308" y1="2942.0278" x2="2197.8076"
                            y2="2942.0278">
				<stop offset="0" style="stop-color:#09005D"/>
                <stop offset="1" style="stop-color:#1A0F91"/>
			</linearGradient>
            <circle fill="url(#SVGID_50_)" cx="2188.2" cy="2942" r="9.6"/>
            <linearGradient id="SVGID_51_" gradientUnits="userSpaceOnUse" x1="1307.0953" y1="2942.0278" x2="1326.3721"
                            y2="2942.0278">
				<stop offset="0" style="stop-color:#09005D"/>
                <stop offset="1" style="stop-color:#1A0F91"/>
			</linearGradient>
            <circle fill="url(#SVGID_51_)" cx="1316.7" cy="2942" r="9.6"/>
            <g>
				<g>
					<linearGradient id="SVGID_52_" gradientUnits="userSpaceOnUse" x1="1001.4607" y1="2709.6702"
                                    x2="1372.6146" y2="2868.2688">
						<stop offset="0" style="stop-color:#09005D"/>
                        <stop offset="1" style="stop-color:#1A0F91"/>
					</linearGradient>
                    <path fill="url(#SVGID_52_)" d="M1686.3,2939.6c-0.1,0-0.2,0-0.3,0l-380.4-22.4c-2.7-0.1-4.8-3.7-4.6-6.4
						c0.1-2.7,2.5-5.7,5.1-5.3l380.4,19.5c2.7,0.1,4.8,4.9,4.6,7.6C1691.1,2935.1,1688.9,2939.6,1686.3,2939.6z"/>
				</g>
                <g>
					
						<linearGradient id="SVGID_53_" gradientUnits="userSpaceOnUse" x1="2230.0754" y1="1036.407"
                                        x2="2600.5139" y2="1194.6997"
                                        gradientTransform="matrix(0.977 0.2132 -0.2132 0.977 -936.7212 1188.6252)">
						<stop offset="0" style="stop-color:#09005D"/>
                            <stop offset="1" style="stop-color:#1A0F91"/>
					</linearGradient>
                    <path fill="url(#SVGID_53_)" d="M1668.9,3063.3c-0.1,0-0.2,0-0.3-0.1l-367.4-100.8c-2.6-0.7-4.1-3.6-3.4-6.2
						c0.7-2.6,3.5-4.4,6-3.5l367.5,100.4c2.6,0.7,4.1,3.7,3.4,6.3C1674.1,3062,1671.5,3063.9,1668.9,3063.3z"/>
				</g>
			</g>
            <linearGradient id="SVGID_54_" gradientUnits="userSpaceOnUse" x1="1586.1503" y1="2997.1436" x2="1746.3793"
                            y2="2997.1436">
				<stop offset="0" style="stop-color:#09005D"/>
                <stop offset="1" style="stop-color:#1A0F91"/>
			</linearGradient>
            <circle fill="url(#SVGID_54_)" cx="1666.3" cy="2997.1" r="80.1"/>
            <linearGradient id="SVGID_55_" gradientUnits="userSpaceOnUse" x1="1574.0116" y1="3101.3247" x2="1665.5521"
                            y2="3007.9714">
				<stop offset="0" style="stop-color:#09005D"/>
                <stop offset="1" style="stop-color:#1A0F91"/>
			</linearGradient>
            <path fill="url(#SVGID_55_)" d="M1672,2997.6l-5.4-6.8c-2.1-2.6-5.2-4.1-8.5-4c-3.3,0.1-6.4,1.7-8.3,4.4l-52.2,73.5l25.3,19.8
				l49.6-74.5C1675,3006.2,1674.8,3001.2,1672,2997.6z"/>
            <linearGradient id="SVGID_56_" gradientUnits="userSpaceOnUse" x1="1685.8256" y1="3192.7659" x2="1803.062"
                            y2="3362.1072">
				<stop offset="0" style="stop-color:#09005D"/>
                <stop offset="1" style="stop-color:#1A0F91"/>
			</linearGradient>
            <path fill="url(#SVGID_56_)" d="M1688.7,3119.9L1544.8,3011c-4.6-3.4-11-2.8-14.7,1.5l-7.1,8.2c-2,2.3-3,5.3-2.7,8.4
				c0.3,3.1,1.9,5.8,4.3,7.7l146.9,112.2c2.8,2.1,6.4,2.8,9.7,1.8c3.3-1,6-3.5,7.2-6.8l4.1-11.5
				C1694,3127.9,1692.5,3122.8,1688.7,3119.9z"/>
            <g>
				<linearGradient id="SVGID_57_" gradientUnits="userSpaceOnUse" x1="1754.3969" y1="3182.0503"
                                x2="2050.5869" y2="3483.1357">
					<stop offset="0" style="stop-color:#E1473D"/>
                    <stop offset="1" style="stop-color:#E9605A"/>
				</linearGradient>
                <path fill="url(#SVGID_57_)" d="M1572.4,2986.2c0,0-51.1,17.3-20.5,47.9c30.6,30.6,107.7,80.8,122.4,85.7
					c14.7,4.9,62.4-8.6,50.2-25.7c-12.2-17.1-79.6-49-79.6-49l-26.9-46.5C1618,2998.6,1570.4,2991.9,1572.4,2986.2z"/>
                <linearGradient id="SVGID_58_" gradientUnits="userSpaceOnUse" x1="1393.9484" y1="3076.1338"
                                x2="1791.1886" y2="2671.0276">
					<stop offset="0" style="stop-color:#FEBBBA"/>
                    <stop offset="1" style="stop-color:#FF928E"/>
				</linearGradient>
                <path fill="url(#SVGID_58_)" d="M1690.2,2633.1c0,0-68.5,150.1-71,189.3c-2.4,39.2-47.7,166.5-47.7,166.5s20.8,35.5,46.5,9.8
					c25.7-25.7,195.8-377,176.2-403.9C1774.6,2567.8,1693.9,2596.8,1690.2,2633.1z"/>
                <linearGradient id="SVGID_59_" gradientUnits="userSpaceOnUse" x1="2738.0464" y1="1533.5682"
                                x2="2430.3054" y2="1774.4087">
					<stop offset="0" style="stop-color:#09005D"/>
                    <stop offset="1" style="stop-color:#1A0F91"/>
				</linearGradient>
                <path fill="url(#SVGID_59_)" d="M1392.4,2250.9c0,0-82,116.2,27.3,158.6c109.3,42.4,264.4,223.6,264.4,223.6l124-35.9
					c0,0-151.5-269.3-222.6-285.6C1474.4,2304.9,1425.5,2270.1,1392.4,2250.9z"/>
			</g>
            <linearGradient id="SVGID_60_" gradientUnits="userSpaceOnUse" x1="1307.6345" y1="2884.3113" x2="1278.3634"
                            y2="3118.481">
				<stop offset="0" style="stop-color:#09005D"/>
                <stop offset="1" style="stop-color:#1A0F91"/>
			</linearGradient>
            <circle fill="url(#SVGID_60_)" cx="1301.1" cy="2936.4" r="37.2"/>
            <g>
				<g>
					
						<linearGradient id="SVGID_61_" gradientUnits="userSpaceOnUse" x1="955.2465" y1="-2145.6248"
                                        x2="754.9089" y2="-1880.5945"
                                        gradientTransform="matrix(0.9771 0.2131 -0.2131 0.9771 709.0426 3775.2197)">
						<stop offset="0" style="stop-color:#FEBBBA"/>
                            <stop offset="1" style="stop-color:#FF928E"/>
					</linearGradient>
                    <path fill="url(#SVGID_61_)" d="M2138.3,1889.5c-0.6,2.6-93.2,150.6-93.2,150.6l-83.4-54.7l67-153.3
						C2028.7,1832.1,2147.7,1846.3,2138.3,1889.5z"/>

                    <linearGradient id="SVGID_62_" gradientUnits="userSpaceOnUse" x1="802.2437" y1="-2081.9775"
                                    x2="1019.1526" y2="-2081.9775"
                                    gradientTransform="matrix(0.9771 0.2131 -0.2131 0.9771 709.0426 3775.2197)">
						<stop offset="0" style="stop-color:#09005D"/>
                        <stop offset="1" style="stop-color:#1A0F91"/>
					</linearGradient>
                    <path fill="url(#SVGID_62_)" d="M2045.9,1868.1c-4.4,0.8-8.1,3.5-10.2,7.4l-41,76.8c-0.6,1.2-1.1,2.4-1.4,3.7
						c-1.5,7.1-4.5,30.2,19.6,32.2c20.6,1.7,39.4,3.5,51,10.7c6.8,4.2,8.7,13.1,4.5,19.8c-8.7,13.9-27,41.5-46.6,63.7
						c-4.9,5.6-13.3,6.4-19.3,1.9c-15.7-11.8-45.6-35.8-65.8-60.9c-3.3-4.1-4.1-9.7-2-14.6c9.1-21.4,34.2-81.6,38.7-99.7
						c4.2-16.8-11.4-33.8-19.2-41.1c-2.9-2.7-4.6-6.6-4.6-10.6c0-12.1,4-35.6,35.1-34.9c7.7,0.2,14.1-6.1,14.4-13.8
						c0.6-13.8,6.4-31.9,32.3-33.6c26.3-1.7,39.2,15.8,45.2,29.3c2.7,6,9,9.9,15.5,8.9c2.9-0.4,6,0.3,8.8,3.3
						c4.9,5.4,11.3,5.7,17.1,2.5c2.8-1.5,2.4-3.4,7-3.5c4.2,0,8.5,1.7,12,4c5,3.3,8.8,8.2,12.1,13.3c10.4,16.4,15.5,36.1,14.4,55.5
						c-0.9,15.4-17.7,21.4-31.4,18.2c-14.9-3.5-28-14.9-37.3-26.7C2082.3,1864.2,2057.9,1866,2045.9,1868.1z"/>
				</g>
                <g>
					<linearGradient id="SVGID_63_" gradientUnits="userSpaceOnUse" x1="2102.5249" y1="1861.1469"
                                    x2="1809.854" y2="1808.2169">
						<stop offset="0" style="stop-color:#FF928E"/>
                        <stop offset="1" style="stop-color:#FE7062"/>
					</linearGradient>
                    <path fill="url(#SVGID_63_)" d="M1966.2,1762.4c149.8-9.9,239.5,78.2,193.7,176.5c-5.7,12.3-22.9,14.4-35.5,9.5
						c-95.9-37.8-142.1-82.3-175-158.3C1944,1777.4,1952.6,1763.3,1966.2,1762.4z"/>
                    <linearGradient id="SVGID_64_" gradientUnits="userSpaceOnUse" x1="1958.0133" y1="1942.1973"
                                    x2="1481.8256" y2="2311.4399">
						<stop offset="0" style="stop-color:#E1473D"/>
                        <stop offset="1" style="stop-color:#E9605A"/>
					</linearGradient>
                    <polygon fill="url(#SVGID_64_)"
                             points="2030.2,1897.7 1953.2,1940.7 2020,1882.7 					"/>
                    <linearGradient id="SVGID_65_" gradientUnits="userSpaceOnUse" x1="1931.0426" y1="1907.4149"
                                    x2="1454.8551" y2="2276.6575">
						<stop offset="0" style="stop-color:#E1473D"/>
                        <stop offset="1" style="stop-color:#E9605A"/>
					</linearGradient>
                    <polygon fill="url(#SVGID_65_)"
                             points="1956.2,1932.2 1971,1832.1 1981.4,1847.7 					"/>
                    <linearGradient id="SVGID_66_" gradientUnits="userSpaceOnUse" x1="1966.9893" y1="1953.7731"
                                    x2="1490.8014" y2="2323.0159">
						<stop offset="0" style="stop-color:#E1473D"/>
                        <stop offset="1" style="stop-color:#E9605A"/>
					</linearGradient>
                    <path fill="url(#SVGID_66_)" d="M1955.8,1931.6c-23.4,56.1-19.1,62.4-21.5,78.3l5.9-15.3c5.1-11.8,7.3-20.6,23.9-63.4
						L1955.8,1931.6z"/>
                    <linearGradient id="SVGID_67_" gradientUnits="userSpaceOnUse" x1="1948.2213" y1="1763.7844"
                                    x2="2287.0691" y2="2066.6089">
						<stop offset="0" style="stop-color:#E1473D"/>
                        <stop offset="1" style="stop-color:#E9605A"/>
					</linearGradient>
                    <path fill="url(#SVGID_67_)"
                          d="M1983.5,1788.9c58.5,36.8,106.6,82.8,139.1,142.3C2070,1893.8,2024.4,1845.1,1983.5,1788.9z"/>
                    <linearGradient id="SVGID_68_" gradientUnits="userSpaceOnUse" x1="1973.2944" y1="1735.7286"
                                    x2="2312.1426" y2="2038.5533">
						<stop offset="0" style="stop-color:#E1473D"/>
                        <stop offset="1" style="stop-color:#E9605A"/>
					</linearGradient>
                    <path fill="url(#SVGID_68_)"
                          d="M2149.5,1922.9c15.6-61.8-47.9-119-140.9-143C2079.6,1819.7,2137.2,1868.7,2149.5,1922.9z"/>
				</g>

                <linearGradient id="SVGID_69_" gradientUnits="userSpaceOnUse" x1="667.8925" y1="-1942.9998"
                                x2="822.6871" y2="-2101.8149"
                                gradientTransform="matrix(0.9771 0.2131 -0.2131 0.9771 709.0426 3775.2197)">
					<stop offset="0" style="stop-color:#FEBBBA"/>
                    <stop offset="1" style="stop-color:#FF928E"/>
				</linearGradient>
                <path fill="url(#SVGID_69_)" d="M1965.9,1931.1c0,0,27.1-34.2,14.2-52.1c-12.9-18-40.7-21.5-47.8,14.6
					C1923.3,1938.6,1965.9,1931.1,1965.9,1931.1z"/>
			</g>
		</g>
	</g>
</g>
</svg>
