<?xml version="1.0" standalone="no"?><!DOCTYPE svg PUBLIC "-//W3C//DTD SVG 1.1//EN"
        "http://www.w3.org/Graphics/SVG/1.1/DTD/svg11.dtd">
<svg t="1675767849845" class="icon" viewBox="0 0 1024 1024" version="1.1" xmlns="http://www.w3.org/2000/svg" p-id="2404"
     width="200" height="200">
    <path d="M774.144 421.888c-100.864 0-183.296 82.432-183.296 183.296 0 100.864 82.432 183.296 183.296 183.296 100.864 0 183.296-82.432 183.296-183.296 0-101.376-81.92-183.296-183.296-183.296z"
          fill="#FFB634" p-id="2405"></path>
    <path d="M254.976 421.888c-100.864 0-183.296 81.92-183.296 183.296 0 100.864 82.432 183.296 183.296 183.296 100.864 0 183.296-82.432 183.296-183.296 0-101.376-82.432-183.296-183.296-183.296z"
          fill="#2F2960" p-id="2406"></path>
    <path d="M428.032 421.888c-100.864 0-183.296 82.432-183.296 183.296 0 100.864 82.432 183.296 183.296 183.296 100.864 0 183.296-82.432 183.296-183.296 0-101.376-82.432-183.296-183.296-183.296z"
          fill="#2279FF" p-id="2407"></path>
    <path d="M601.088 421.888c-100.864 0-183.296 82.432-183.296 183.296 0 100.864 82.432 183.296 183.296 183.296 100.864 0 183.296-82.432 183.296-183.296 0-101.376-82.432-183.296-183.296-183.296z"
          fill="#FFF9CA" p-id="2408"></path>
    <path d="M563.2 268.8c8.192 0 15.36-6.656 15.36-15.36 0-8.192-6.656-15.36-15.36-15.36-8.192 0-15.36 6.656-15.36 15.36s7.168 15.36 15.36 15.36z"
          fill="#2279FF" p-id="2409"></path>
    <path d="M778.24 576.512h-3.072L742.4 522.24l-72.704-203.264 23.552-23.552c4.608-4.608 5.632-11.776 3.072-17.408l-6.656-13.824c-7.68-15.872-23.552-25.088-40.96-25.088h-41.984c-8.192 0-15.36 6.656-15.36 15.36s6.656 15.36 15.36 15.36h41.984c5.632 0 11.264 3.072 13.824 8.192l2.048 3.584-22.528 22.528-0.512 0.512c-0.512 0.512-0.512 1.024-1.024 1.536-0.512 0.512-0.512 1.024-0.512 1.024 0 0.512-0.512 1.024-0.512 1.536 0 0.512-0.512 1.024-0.512 1.536 0 0.512-0.512 1.024-0.512 1.536v6.144c0 0.512 0.512 1.024 0.512 1.536v1.024l4.608 12.288c-65.024 20.48-100.352 69.12-129.024 108.544-17.408 23.552-32.256 44.544-50.688 56.32L414.72 358.4c13.824-2.56 31.232-6.656 42.496-9.216 7.68-2.048 13.312-8.704 13.312-16.384 0-9.216-7.68-16.896-16.896-16.896H346.624c-8.192 0-15.36 6.656-15.36 15.36v15.36c0 8.192 6.656 15.36 15.36 15.36h34.816L409.6 440.32l-145.92 135.168c-3.072-1.024-5.632-1.536-9.216-1.536-16.896 0-30.72 13.824-30.72 30.72s13.824 30.72 30.72 30.72c11.264 0 20.992-6.144 26.624-15.36h156.672c0 33.792 27.136 60.928 60.928 60.928h4.096l5.632 16.384c-5.632 2.048-9.728 7.68-9.728 14.336 0 8.192 6.656 15.36 15.36 15.36h45.568c8.192 0 15.36-6.656 15.36-15.36 0-8.192-6.656-15.36-15.36-15.36h-19.456l-8.192-25.088c16.896-10.752 28.16-29.696 28.16-51.2 0-14.848-5.12-28.672-14.336-38.912 10.752-15.872 20.48-35.328 29.696-55.296 21.504-45.056 46.08-95.744 92.672-118.272l45.056 126.464c0.512 1.024 0.512 2.048 1.536 2.56l35.84 59.392c-1.024 3.072-2.048 6.656-2.048 10.24 0 15.872 12.8 29.184 29.184 29.184 15.872 0 29.184-12.8 29.184-29.184 0.512-16.384-12.8-29.696-28.672-29.696z m-331.776 13.312H293.888l126.976-117.76 36.864 103.936c-4.608 3.584-8.192 8.704-11.264 13.824z m75.776 50.688l-8.192-25.088c-2.56-8.192-11.264-12.288-19.456-9.728-8.192 2.56-12.288 11.264-9.728 19.456l8.192 25.088c-13.824-3.072-24.576-15.36-24.576-29.696 0-16.896 13.824-30.72 30.72-30.72s30.72 13.824 30.72 30.72c0 7.168-3.072 14.336-7.68 19.968z m26.112-128c-9.728 20.992-18.432 37.888-27.136 50.688-6.656-2.56-14.336-4.096-22.016-4.096-5.12 0-9.728 0.512-14.336 2.048l-12.288-34.304c26.112-14.336 45.056-40.448 65.024-67.584 28.672-39.424 58.368-80.384 114.688-97.792l6.144 17.408c-58.368 26.112-87.04 85.504-110.08 133.632z"
          fill="#2279FF" p-id="2410"></path>
</svg>